<svg width="525" height="430" viewBox="0 0 525 430" fill="none" xmlns="http://www.w3.org/2000/svg">
<g clip-path="url(#clip0_0_6216)">
<path d="M348.411 398.307C346.48 398.285 344.916 396.588 344.945 394.531V394.296C344.945 386.953 289.683 381 221.515 381C153.347 381 98.0891 386.953 98.0891 394.296C98.0891 395.65 99.9752 396.956 103.474 398.188C104.508 398.552 104.303 400.165 103.214 400.216C51.9197 402.593 16 408.085 16 414.479C16 423.051 80.5097 430 160.085 430C193.816 430 224.842 428.752 249.393 426.659C250.784 426.539 252.183 426.531 253.575 426.633C276.53 428.297 304.167 429.268 333.918 429.268C413.493 429.268 478 422.319 478 413.747C478.003 405.705 421.181 399.091 348.411 398.307Z" fill="#EBF2F2"/>
<path d="M430 402.657L395.397 382.978V345H390.132V382.673L355 402.657L357.612 407.209L387.435 390.246C387.992 389.927 388.678 389.929 389.233 390.251C389.788 390.572 390.13 391.163 390.128 391.803V413H395.404V392.109C395.403 391.469 395.744 390.877 396.299 390.556C396.855 390.235 397.54 390.233 398.097 390.551L427.382 407.209L430 402.657Z" fill="url(#paint0_linear_0_6216)"/>
<path d="M385 314V343H398V315.223L385 314Z" fill="url(#paint1_linear_0_6216)"/>
<path d="M501.25 194.537L504 182.127L500.352 181L497 195L501.25 194.537Z" fill="url(#paint2_linear_0_6216)"/>
<path d="M524.333 139.391C522.765 143.346 512.048 172.339 509.462 178.485C506.875 184.631 502.737 186.076 498.674 184.285C496.95 183.527 496.158 182.029 496 180.368C496.456 181.007 497.078 181.506 497.797 181.811C501.871 183.603 505.986 182.16 508.595 176.014C511.204 169.868 521.912 140.872 523.467 136.917C523.999 135.685 524.215 134.338 524.094 133C525.158 134.668 525.345 136.842 524.333 139.391Z" fill="url(#paint3_linear_0_6216)"/>
<path d="M523.32 136.846C521.708 140.762 510.681 169.483 508 175.554C505.318 181.626 501.072 183.067 496.875 181.293C496.134 180.992 495.493 180.497 495.024 179.865C494.92 178.529 495.157 177.188 495.713 175.961C496.929 173.215 510.777 138.109 512.389 134.332C514.001 130.554 518.308 128.987 521.382 130.677C522.423 131.212 523.31 131.989 523.963 132.939C524.094 134.273 523.873 135.618 523.32 136.846Z" fill="url(#paint4_linear_0_6216)"/>
<path d="M436.859 309L447 312.342L445.699 316L434 312.182L436.859 309Z" fill="url(#paint5_linear_0_6216)"/>
<path d="M378 303.532V309.905C378 311.632 379.162 313.12 380.779 313.463L401.843 317.927C402.863 318.144 403.922 317.871 404.727 317.182C405.533 316.493 406 315.462 406 314.373V309.17L379.151 302L378 303.532Z" fill="url(#paint6_linear_0_6216)"/>
<path d="M130 121.532V150H123V121.532C123 119.582 124.567 118 126.5 118C128.433 118 130 119.582 130 121.532Z" fill="url(#paint7_linear_0_6216)"/>
<path d="M125.139 178L134 178.913L106.957 395.252C106.824 396.329 105.858 397.101 104.784 396.989C103.694 396.875 102.901 395.895 103.01 394.798L125.139 178Z" fill="url(#paint8_linear_0_6216)"/>
<path d="M298.855 178L290 178.913L317.043 395.252C317.178 396.329 318.145 397.101 319.219 396.989C319.743 396.935 320.224 396.674 320.556 396.263C320.888 395.852 321.044 395.325 320.989 394.798L298.855 178Z" fill="url(#paint9_linear_0_6216)"/>
<path d="M293.801 171H267C268.168 169.462 269.631 168.11 271.325 167.004C273.01 165.869 274.878 164.957 276.869 164.299C278.801 163.657 280.825 163.251 282.885 163.093H282.904C283.648 163.028 284.428 163 285.234 163C296.079 163 293.801 171 293.801 171Z" fill="url(#paint10_linear_0_6216)"/>
<path d="M289.796 171H267C268.178 169.444 269.653 168.076 271.363 166.957C273.061 165.808 274.946 164.885 276.954 164.22C278.902 163.57 280.944 163.16 283.021 163H283.041C291.832 163.876 289.796 171 289.796 171Z" fill="url(#paint11_linear_0_6216)"/>
<path d="M275 164.385C273.204 165.021 271.52 165.902 270.001 167C270.001 167 269.878 165.392 272.284 164.333C273.55 163.77 274.44 164.013 275 164.385Z" fill="url(#paint12_linear_0_6216)"/>
<rect x="195" y="171" width="24" height="1" fill="url(#paint13_linear_0_6216)"/>
<path d="M218 148L194.871 172L180 171.946L180.848 171.066L203.09 148H218Z" fill="url(#paint14_linear_0_6216)"/>
<path d="M181 171.946L204.088 148H219L195.867 172L181 171.946Z" fill="url(#paint15_linear_0_6216)"/>
<path d="M155.525 78H260.613C263.036 78 265 79.9659 265 82.3909V157.609C265 160.034 263.036 162 260.613 162H153.387C150.964 162 149 160.034 149 157.609V84.5372C149 80.9304 151.921 78.0066 155.525 78.0066V78Z" fill="url(#paint16_linear_0_6216)"/>
<path d="M419.838 62C419.838 62 411.716 66.0918 411.141 67.2237C410.567 68.3556 407 81.3802 407 81.3802L415.157 86C415.157 86 418.54 81.9741 419.172 81.3802C419.652 80.9281 424.964 77.2454 425.576 76.4304C425.819 76.1004 427 72.2461 427 72.2461L422.423 74.0082L419.838 62Z" fill="#F7C6B0"/>
<path d="M412.007 70C412.007 70 411.928 71.0122 412.31 71.628C412.691 72.2439 414.636 74.6463 414.939 75.1067C415.242 75.5671 414.939 78 414.939 78C414.939 78 415.675 75.8659 415.766 75.9756C415.857 76.0854 416.978 77.3049 417.235 77.5762C417.493 77.8476 419.865 78 419.865 78L424 73.7896L413.334 70H412.007Z" fill="url(#paint17_linear_0_6216)"/>
<path d="M412.902 72.9966C411.289 71.2304 411.382 68.4989 413.113 66.847L424.361 56.1067C426.146 54.4022 428.984 54.4992 430.649 56.3218L433.098 59.0034C434.711 60.7696 434.618 63.5011 432.887 65.153L421.639 75.8933C419.854 77.5978 417.016 77.5008 415.351 75.6782L412.902 72.9966Z" fill="url(#paint18_linear_0_6216)"/>
<path d="M434.58 63.0775L424.965 71.453L424.269 72.065L423.774 72.4947L421.919 74.1223L420.154 75.6652C419.622 76.1312 418.788 76.1079 418.288 75.6132L412.349 69.6627C412.111 69.4236 411.986 69.1055 412.001 68.7796C412.016 68.4536 412.17 68.1468 412.429 67.9277L418.601 62.5339L420.457 60.9063L420.951 60.4864L421.647 59.8646L426.831 55.3334C427.363 54.8693 428.195 54.8925 428.697 55.3855L434.65 61.3295C435.143 61.8315 435.112 62.6111 434.58 63.0775Z" fill="url(#paint19_linear_0_6216)"/>
<path d="M414.238 70.1876C414.358 70.0823 414.538 70.0885 414.65 70.2017L418.777 74.3764C418.898 74.499 418.891 74.6983 418.762 74.8124C418.642 74.9177 418.462 74.9115 418.35 74.7983L414.223 70.6236C414.102 70.501 414.109 70.3017 414.238 70.1876Z" fill="url(#paint20_linear_0_6216)"/>
<path d="M434 94.1022V113.541L406.169 152.949L395.102 168.627C393.232 169.077 391.288 169.12 389.4 168.754C387.459 168.393 385.657 167.489 384.199 166.146C382.437 164.517 380.904 162.03 380.039 158.216C378.881 153.174 403.743 85.1162 403.743 85.1162C403.743 85.1162 409.348 83.7277 413.665 90.5495C413.665 90.5495 403.127 136.506 403.388 137.158C403.649 137.81 434 94.1022 434 94.1022Z" fill="url(#paint21_linear_0_6216)"/>
<path d="M427 104C421.67 114.238 413.464 134.651 405.078 153.736L393.807 169.622C391.902 170.078 389.923 170.122 388 169.751C394.244 167.769 399.728 156.21 401.256 153.416C405.919 144.839 425.12 107.276 427 104Z" fill="url(#paint22_linear_0_6216)"/>
<path d="M197.464 367C197.464 367 193.574 379.875 193.219 380.414C192.864 380.952 164.823 390.519 165.001 391.412C165.178 392.306 166.503 392.844 167.741 392.933C168.98 393.023 204.806 395.525 204.983 394.9C205.161 394.276 211 370.219 211 370.219L197.464 367Z" fill="url(#paint23_linear_0_6216)"/>
<path d="M458 223.652C458 223.652 456.57 227.415 454.188 233.277C453.864 234.096 453.506 234.949 453.139 235.843C448.889 246.118 442.338 261.184 435.43 274.088C423.622 296.154 406.042 298.515 395.021 295.103C390.371 293.662 365.324 286.054 337.929 277.734C337.844 277.711 337.74 277.669 337.623 277.64C332.597 276.114 327.495 274.559 322.426 273.027C321.585 272.764 320.736 272.51 319.918 272.26L258.384 253.599C258.384 253.599 257.861 262.352 256.285 266.385C254.709 270.419 210.374 376 210.374 376C203.288 375.717 197 371.934 197 371.934C197 371.934 208.149 318.012 219.378 273.379C219.83 271.551 220.292 269.732 220.756 267.947C221.468 265.162 222.183 262.417 222.898 259.753C223.726 256.631 224.545 253.596 225.351 250.675C225.952 248.532 226.54 246.447 227.125 244.433C229.487 236.269 231.736 229.292 233.718 224.186C235.993 218.396 237.942 215 239.398 215C239.723 215 240.805 215.15 242.495 215.423C245.591 215.914 250.797 216.828 257.325 218.005C262.615 218.962 268.779 220.097 275.434 221.326C276.964 221.609 278.53 221.892 280.103 222.188C313.818 228.417 356.824 236.477 361.149 236.803C365.841 237.151 371.573 229.647 374.91 224.563C376.431 222.231 377.461 220.403 377.649 220.055C377.659 220.033 377.67 220.013 377.682 219.993L458 223.652Z" fill="url(#paint24_linear_0_6216)"/>
<path d="M453 235C448.786 245.185 442.29 260.12 435.441 272.911C423.732 294.784 406.302 297.125 395.373 293.742C390.763 292.314 365.928 284.773 338.764 276.525C338.68 276.502 338.577 276.461 338.461 276.432C333.477 274.919 328.419 273.378 323.393 271.86C322.558 271.598 321.717 271.347 320.905 271.099C314.732 269.164 309.654 267.552 310.018 267.484C310.705 267.349 398.108 292.253 409.234 290.054C433.172 285.369 442.374 240.185 442.374 240.185L453 235Z" fill="url(#paint25_linear_0_6216)"/>
<path d="M375.6 223.748L375 243L450 242.977L391.948 215L375.6 223.748Z" fill="url(#paint26_linear_0_6216)"/>
<path d="M459 73.4579L440.422 82C439.975 79.2383 439.356 77.3716 438.693 76.1094C438.479 75.6659 438.216 75.2471 437.91 74.8604C436.837 73.4779 435.891 73.4579 435.814 73.4579L435.444 67.1565L435 59.4326L449.568 58L453.743 60.6949L459 73.4579Z" fill="#F7C6B0"/>
<path d="M443 65L442.95 65.3831C442.95 65.3831 442.563 71.8514 438.689 75C438.511 74.6147 438.294 74.2507 438.04 73.9147C437.152 72.7133 436.37 72.6959 436.306 72.6959L436 67.22L443 65Z" fill="url(#paint27_linear_0_6216)"/>
<path d="M405.25 78.1296L414.349 82.7737C414.872 83.0524 415.12 83.6453 414.943 84.1942L413.382 89.1676C413.287 89.4993 413.04 89.7717 412.711 89.9077C412.382 90.0438 412.007 90.0287 411.69 89.8668L401.644 84.6426C401.039 84.3122 400.822 83.576 401.158 82.9901L403.673 78.6C403.816 78.3364 404.064 78.1386 404.36 78.0504C404.656 77.9621 404.976 77.9906 405.25 78.1296Z" fill="url(#paint28_linear_0_6216)"/>
<path d="M485.853 143.426C480.043 168.563 465.782 198.358 465.782 198.358C465.782 198.358 468.071 202.929 467.09 205.214C466.711 206.102 465.877 206.911 464.988 207.577C464.988 207.577 464.968 207.577 464.945 207.61C464.778 207.737 464.618 207.852 464.438 207.969C464.427 207.98 464.412 207.987 464.396 207.989C463.659 208.497 462.883 208.944 462.074 209.327C461.255 212.076 460.759 214.912 460.596 217.776C460.269 223.417 461.217 230.716 466.825 235.691C468.411 237.105 465.688 242.726 455.917 243.853C446.146 244.979 380.472 239.282 380.472 239.282C380.472 239.282 371.496 215.291 372.022 213.708C372.183 213.245 376.6 204.156 382.977 191.291C384.37 188.473 385.851 185.47 387.414 182.336C388.977 179.202 390.573 175.967 392.231 172.634C403.417 150.161 416.494 124.137 423.793 110.282C423.801 110.263 423.812 110.246 423.825 110.23L423.855 110.177C426.297 105.539 428.083 102.29 428.926 101.004C432.425 95.6959 436.233 90.5967 440.329 85.7328C440.329 85.7328 455.74 77.7054 460.089 77.1798C464.438 76.6542 468.107 77.0949 470.792 81.0385C473.62 85.1615 491.668 118.313 485.853 143.426Z" fill="url(#paint29_linear_0_6216)"/>
<path d="M308.99 165.456C308.99 165.456 297.019 163 295.83 163C294.64 163 282.679 169.172 283.007 169.684C283.334 170.196 294.051 168.428 294.647 168.713C295.243 168.999 298.614 171 301.989 171C305.363 171 309 169.868 309 169.868L308.99 165.456Z" fill="#F7C6B0"/>
<path d="M436 110L400 168C400 168 431.472 123.185 436 110Z" fill="url(#paint30_linear_0_6216)"/>
<path d="M471 131C470.407 132.061 432.379 200.093 426.953 200C420.131 199.897 392.172 192.684 383 190.268C384.395 187.484 385.878 184.517 387.444 181.42H423.334L471 131Z" fill="url(#paint31_linear_0_6216)"/>
<path d="M308.628 164.052C308.628 164.052 315.45 163.935 315.874 164.052C316.298 164.17 315.515 171 315.515 171H307.35C306.831 171 306.632 165.478 308.628 164.052Z" fill="url(#paint32_linear_0_6216)"/>
<path d="M313.102 167.602C313.278 166.217 314.771 162.139 316.695 162.139C318.619 162.139 394.824 168.033 399.048 168.004C403.272 167.975 437.738 106.554 440.208 102.575C442.677 98.5963 457.09 91.8474 467.648 99.4608C478.205 107.074 473.276 126.456 469.405 133.546C465.534 140.635 423.855 190.471 421.039 190.988C418.223 191.506 317.505 174.553 314.928 173.859C312.351 173.165 313.102 167.602 313.102 167.602Z" fill="url(#paint33_linear_0_6216)"/>
<rect x="108" y="173" width="206" height="5" rx="2.5" fill="url(#paint34_linear_0_6216)"/>
<path d="M116.003 178H141V178.651C141 180.501 139.066 182 136.68 182H120.32C117.934 182 116 180.501 116 178.651V178H116.003Z" fill="url(#paint35_linear_0_6216)"/>
<path d="M281.003 178H306V178.651C306 180.501 304.066 182 301.68 182H285.32C282.934 182 281 180.501 281 178.651V178H281.003Z" fill="url(#paint36_linear_0_6216)"/>
<path d="M133 151V163.946C132.965 167.875 129.814 171.031 125.962 170.996H121.038C120.993 171.001 120.948 171.001 120.903 170.996C117.1 170.964 114.026 167.825 114 163.946V151H133Z" fill="url(#paint37_linear_0_6216)"/>
<path d="M132 151V163.949C131.964 167.878 128.797 171.034 124.925 171H122.068C118.199 171.031 115.036 167.875 115 163.949V151H132Z" fill="url(#paint38_linear_0_6216)"/>
<path d="M131 151V163.946C130.983 165.833 130.179 167.635 128.766 168.957C127.353 170.28 125.447 171.013 123.466 170.996H121.537C121.489 171.001 121.44 171.001 121.392 170.996C117.32 170.964 114.028 167.825 114 163.946V151H131Z" fill="url(#paint39_linear_0_6216)"/>
<path d="M117.012 169H130V170.873C130 171.172 129.866 171.459 129.627 171.67C129.388 171.881 129.064 172 128.726 172H118.274C117.936 172 117.612 171.881 117.373 171.67C117.134 171.459 117 171.172 117 170.873V169L117.012 169Z" fill="url(#paint40_linear_0_6216)"/>
<path d="M118 132.88V150H115V132.88C115.033 131.829 115.695 131 116.5 131C117.305 131 117.967 131.829 118 132.88Z" fill="url(#paint41_linear_0_6216)"/>
<path d="M132 134.017V150H129V134.017C129 132.903 129.672 132 130.5 132C131.328 132 132 132.903 132 134.017Z" fill="url(#paint42_linear_0_6216)"/>
<path d="M124 129.66V151H117V129.66C117 127.638 118.567 126 120.5 126C122.433 126 124 127.638 124 129.66Z" fill="url(#paint43_linear_0_6216)"/>
<path d="M204 171V172H180L180.891 171H204Z" fill="url(#paint44_linear_0_6216)"/>
<path d="M266 84.4676V148.22L265.328 155.961C265.328 159.528 262.777 162 259.256 162H157.267C153.759 162 151.63 159.304 151.63 155.73L151 148.21V84.4676C151.004 80.8972 153.849 78.0036 157.361 78H259.629C263.145 77.9982 265.996 80.8933 266 84.4676Z" fill="url(#paint45_linear_0_6216)"/>
<path d="M266 148V155.708C265.998 157.379 265.326 158.98 264.131 160.16C262.937 161.34 261.317 162.002 259.629 162H157.361C153.85 161.998 151.004 159.183 151 155.708V148L266 148Z" fill="url(#paint46_linear_0_6216)"/>
<rect x="154" y="81" width="109" height="66" rx="5" fill="url(#paint47_linear_0_6216)"/>
<g opacity="0.3">
<path fill-rule="evenodd" clip-rule="evenodd" d="M221.139 117.5H215.063C214.486 117.5 214.018 117.99 214.018 118.594C214.018 119.198 214.486 119.688 215.063 119.688H221.139C221.716 119.688 222.184 119.198 222.184 118.594C222.184 117.99 221.716 117.5 221.139 117.5Z" fill="#0041C4"/>
<path fill-rule="evenodd" clip-rule="evenodd" d="M218.931 118.45C219.065 118.45 219.168 118.535 219.168 118.643C219.168 118.752 219.065 118.838 218.931 118.838C218.801 118.838 218.696 118.752 218.696 118.643C218.696 118.535 218.799 118.45 218.931 118.45ZM218.935 119.031C219.101 119.031 219.243 118.974 219.332 118.882C219.394 118.969 219.504 119.031 219.657 119.031C219.896 119.031 220.087 118.864 220.087 118.647C220.087 118.431 219.896 118.266 219.657 118.266C219.508 118.266 219.4 118.324 219.338 118.406C219.256 118.315 219.129 118.257 218.984 118.257C218.871 118.257 218.774 118.293 218.701 118.357C218.717 118.199 218.829 118.108 219.074 118.056L219.248 118.018C219.315 118.004 219.353 117.969 219.353 117.922C219.353 117.87 219.304 117.828 219.242 117.828C219.226 117.828 219.213 117.831 219.175 117.839L219.175 117.839L219.175 117.839L219.168 117.841L219.005 117.875C218.598 117.962 218.432 118.144 218.432 118.5V118.573C218.432 118.851 218.63 119.031 218.935 119.031ZM219.466 118.771C219.451 118.757 219.434 118.749 219.415 118.748C219.426 118.715 219.432 118.68 219.432 118.643C219.432 118.61 219.427 118.578 219.418 118.547C219.436 118.546 219.452 118.539 219.466 118.526L219.469 118.524C219.515 118.483 219.563 118.44 219.654 118.44C219.749 118.44 219.828 118.496 219.858 118.573H219.628C219.583 118.573 219.549 118.603 219.549 118.643C219.549 118.684 219.583 118.713 219.628 118.713L219.861 118.715C219.832 118.796 219.752 118.855 219.654 118.855C219.565 118.855 219.517 118.814 219.472 118.775L219.466 118.771ZM216.206 119.266C216.282 119.266 216.342 119.212 216.342 119.146C216.342 119.117 216.331 119.092 216.307 119.065L216.213 118.962C216.275 119.005 216.356 119.031 216.457 119.031C216.696 119.031 216.887 118.864 216.887 118.647C216.887 118.431 216.696 118.266 216.457 118.266C216.389 118.266 216.33 118.278 216.28 118.298C216.256 118.279 216.223 118.267 216.186 118.266C216.146 118.264 216.111 118.279 216.085 118.304L215.74 118.631C215.702 118.667 215.687 118.696 215.687 118.727C215.687 118.756 215.7 118.785 215.731 118.82L216.102 119.223C216.126 119.252 216.162 119.266 216.206 119.266ZM216.197 118.548C216.2 118.548 216.203 118.548 216.206 118.548C216.229 118.548 216.248 118.542 216.266 118.526L216.269 118.524C216.315 118.483 216.363 118.44 216.454 118.44C216.549 118.44 216.628 118.496 216.657 118.573H216.428C216.383 118.573 216.349 118.603 216.349 118.643C216.349 118.684 216.383 118.713 216.428 118.713L216.66 118.715C216.631 118.796 216.552 118.855 216.454 118.855C216.365 118.855 216.317 118.814 216.271 118.775L216.266 118.771C216.248 118.755 216.229 118.747 216.206 118.747C216.155 118.747 216.114 118.783 216.114 118.832C216.114 118.84 216.115 118.849 216.119 118.858L216.001 118.729L216.197 118.548ZM215.639 119.132V118.397C215.639 118.322 215.577 118.266 215.491 118.266C215.406 118.266 215.342 118.322 215.342 118.397V119.132C215.342 119.208 215.406 119.266 215.491 119.266C215.575 119.266 215.639 119.208 215.639 119.132ZM217.107 118.927V118.369C217.107 118.31 217.151 118.266 217.209 118.266C217.266 118.266 217.308 118.31 217.308 118.369V118.859H217.559V118.369C217.559 118.31 217.602 118.266 217.661 118.266C217.718 118.266 217.76 118.31 217.76 118.369V118.859H218.01V118.369C218.01 118.31 218.054 118.266 218.112 118.266C218.171 118.266 218.211 118.31 218.211 118.369V118.927C218.211 118.987 218.167 119.031 218.109 119.031H217.211C217.151 119.031 217.107 118.987 217.107 118.927ZM221.171 119.266C221.248 119.266 221.308 119.212 221.308 119.146C221.308 119.117 221.297 119.092 221.273 119.065L220.967 118.729L221.244 118.472C221.273 118.447 221.288 118.414 221.288 118.384C221.288 118.318 221.229 118.268 221.152 118.266C221.112 118.264 221.077 118.279 221.051 118.304L220.706 118.631C220.668 118.667 220.653 118.696 220.653 118.727C220.653 118.756 220.666 118.785 220.697 118.82L221.068 119.223C221.092 119.252 221.128 119.266 221.171 119.266ZM220.604 119.132V118.397C220.604 118.322 220.543 118.266 220.457 118.266C220.371 118.266 220.308 118.322 220.308 118.397V119.132C220.308 119.208 220.371 119.266 220.457 119.266C220.541 119.266 220.604 119.208 220.604 119.132Z" fill="white"/>
<path fill-rule="evenodd" clip-rule="evenodd" d="M201.954 112.694L201.954 112.694C201.042 111.721 201.158 107.614 201.224 107.44C201.011 107.228 200.133 107.059 199.655 107.018C198.842 112.735 201.423 114.034 202.943 113.664C203.349 113.566 203.728 113.198 204.011 112.727C203.532 113.271 202.851 113.248 202.383 113.027C202.85 113.225 203.502 113.227 203.966 112.702C204.173 112.358 204.331 111.967 204.415 111.605C204.52 112.087 204.563 112.313 204.616 112.593C204.653 112.781 204.693 112.994 204.761 113.326C204.216 113.896 203.661 114.565 203.066 115.368C201.061 118.071 201.758 120.01 202.751 120.575C203.88 121.218 204.813 121.065 205.609 120.496C207.217 119.346 206.935 116.865 206.522 114.323C206.433 114.418 206.351 114.505 206.271 114.589C205.949 114.928 205.673 115.22 205.208 115.802C205.208 115.803 205.207 115.804 205.207 115.806C205.567 119.188 204.599 119.917 204 120C203.663 120.047 203.469 119.791 203.402 119.409C203.289 118.762 203.26 117.612 204.903 115.529C205.696 114.523 207.852 112.055 209.919 110.977C210.089 110.889 210.265 110.809 210.446 110.745C210.908 110.581 211.507 110.474 211.835 111.049C212.51 112.233 212.169 113.803 211.828 114.274C211.552 114.656 211.238 114.876 210.451 114.67C210.437 114.632 210.307 113.846 210.179 113.07C210.073 112.427 209.969 111.791 209.931 111.593C209.514 111.796 208.948 112.238 208.612 112.542C209.083 115.422 209.326 118.134 209.368 120.504C210.133 120.596 210.207 120.596 210.81 120.591C210.872 120.591 210.94 120.59 211.015 120.59C210.866 118.462 210.748 116.931 210.574 115.628C210.875 115.78 211.645 115.966 212.533 115.538C214.186 114.74 213.838 112.505 213.705 111.79C213.489 110.627 212.503 109.952 211.333 109.751C210.425 109.595 209.462 109.654 208.539 110.169C207.476 110.761 207.252 110.959 206.535 111.593C206.408 111.705 206.265 111.831 206.1 111.975C205.878 110.812 205.473 108.923 205.31 108.298L205.3 108.262C205.296 108.245 205.287 108.233 205.255 108.214C205.06 108.099 204.487 107.921 203.725 107.979C203.779 108.536 203.669 111.944 202.332 112.821C202.254 112.872 202.155 112.874 202.076 112.827C202.028 112.785 201.987 112.74 201.954 112.694ZM223.89 107.846C224.376 107.827 224.907 107.876 225.29 108.027C225.334 108.045 225.357 108.068 225.339 108.136C225.167 108.784 224.601 111.248 224.445 113.334C224.443 113.368 224.415 113.393 224.383 113.391C223.995 113.36 223.809 113.329 223.381 113.225C223.243 113.192 223.1 113.065 223.119 112.775C223.17 111.98 223.354 109.96 223.736 107.99C223.76 107.867 223.787 107.85 223.89 107.846ZM224.202 113.957L224.203 113.957L224.203 113.958L224.204 113.958C224.268 113.971 224.32 113.981 224.354 113.988C224.372 113.992 224.386 114.009 224.387 114.03C224.399 114.279 224.365 115.132 224.351 115.377C224.35 115.4 224.331 115.417 224.31 115.415C223.507 115.349 222.981 115.199 222.91 115.034C222.836 114.863 222.926 113.871 222.943 113.773C222.948 113.746 222.969 113.729 222.993 113.731C223.204 113.753 223.869 113.889 224.202 113.957L224.202 113.957ZM219.405 114.138C219.759 113.381 219.851 112.623 219.851 112.623C219.85 112.605 219.834 112.591 219.817 112.584C219.492 112.465 219.151 112.412 218.753 112.376C218.721 112.373 218.707 112.382 218.699 112.408C218.389 113.391 218.013 114.133 217.546 114.558C217.053 115.008 216.57 115.224 216.225 114.43C215.624 113.046 216.453 110.803 217.872 110.57C218.646 110.443 218.581 111.515 218.541 111.822C218.537 111.859 218.57 111.865 218.606 111.873C218.615 111.875 218.625 111.877 218.634 111.879C219.726 112.065 220.214 111.138 219.588 110.402C219.388 110.168 218.855 109.837 218.283 109.711C217.264 109.485 216.093 109.662 215.264 110.811C214.598 111.733 214.395 112.599 214.505 113.682C214.635 114.957 215.383 115.59 216.375 115.788C217.406 115.994 218.523 115.538 219.176 114.548L219.18 114.555C219.194 114.533 219.208 114.51 219.222 114.487C219.436 114.873 219.755 115.198 220.232 115.335C221.137 115.595 221.961 115.273 222.338 113.636C222.349 113.588 222.345 113.569 222.291 113.557C221.953 113.485 221.435 113.392 221.081 113.35L221.076 113.35C221.03 113.344 221.011 113.342 221.001 113.386C220.996 113.407 220.991 113.43 220.985 113.453C220.924 113.726 220.83 114.142 220.488 114.338C220.438 114.367 220.377 114.346 220.333 114.306C219.986 113.986 219.92 113.242 219.874 112.573C219.874 112.573 219.779 113.368 219.405 114.138Z" fill="#0041C4"/>
<path fill-rule="evenodd" clip-rule="evenodd" d="M218.943 114.44C218.984 114.592 219.027 114.739 219.073 114.875C219.041 114.769 219.012 114.654 218.985 114.53C218.975 114.48 218.964 114.425 218.943 114.44Z" fill="#FFB000"/>
</g>
<rect x="248" y="59" width="92" height="4" rx="1.97" fill="url(#paint48_linear_0_6216)"/>
<rect x="317" width="2" height="58" fill="url(#paint49_linear_0_6216)"/>
<rect x="304" width="2" height="58" fill="url(#paint50_linear_0_6216)"/>
<rect x="308" y="2" width="10" height="55" fill="#F9EFE1"/>
<rect x="313" y="2" width="5" height="55" fill="#EADBCA"/>
<rect x="301" width="2" height="58" fill="url(#paint51_linear_0_6216)"/>
<rect x="290" width="2" height="58" fill="url(#paint52_linear_0_6216)"/>
<rect x="292" y="2" width="10" height="55" fill="#F9EFE1"/>
<rect x="297" y="2" width="5" height="55" fill="#EADBCA"/>
<path d="M287.57 2L289 2.30615L277.43 56L276 55.6939L287.57 2Z" fill="url(#paint53_linear_0_6216)"/>
<path d="M277.57 0L279 0.306145L267.43 54L266 53.6939L277.57 0Z" fill="url(#paint54_linear_0_6216)"/>
<path d="M273 223C273 223 268.192 231.957 267.525 232.674C266.858 233.392 219 273 219 273C219.448 271.166 219.905 269.342 220.366 267.551C221.071 264.758 221.779 262.004 222.488 259.332L273 223Z" fill="url(#paint55_linear_0_6216)"/>
<path d="M170.041 287.737C170.041 287.737 162.824 292.745 160.999 293.569C159.175 294.393 137.531 282.243 137.008 283.037C136.485 283.832 162.042 316.009 162.824 314.976C163.605 313.942 178 297.939 178 297.939L176.121 289.108L170.041 287.737Z" fill="url(#paint56_linear_0_6216)"/>
<path d="M268 54.2415L278.983 2L287 3.75848L276.017 56L268 54.2415Z" fill="#F9EFE1"/>
<path d="M375 224.368C374.496 225.136 373.927 225.966 373.329 226.819L373.309 226.838C369.938 231.57 365.21 236.928 361.23 236.602C357.251 236.277 320.718 229.497 288.663 223.554C288.464 223.525 288.37 223.502 288.37 223.502L280.134 221.979C278.561 221.683 276.993 221.4 275.462 221.117C275.462 221.117 272.048 225.911 268.026 231.346C265.978 234.112 242.99 251.385 220.741 267.775C199.009 283.807 178.015 299 178.015 299L170 288.855C170 288.855 205.993 251.775 233.727 223.987C236.774 220.928 239.726 217.982 242.506 215.219C254.887 202.926 264.154 194.064 265.139 194.002C270.832 193.677 356.958 231.007 361.832 231.007C365.662 230.998 372.334 226.321 375 224.368Z" fill="url(#paint57_linear_0_6216)"/>
<path d="M272 55.1228L283.722 3L288 3.87724L276.278 56L272 55.1228Z" fill="#EADBCA"/>
<path d="M374 226.268C370.614 230.978 365.867 236.31 361.871 235.986C357.874 235.662 321.189 228.915 289 223C293.832 223.774 357.052 233.958 361.786 233.55C366.52 233.142 373.566 226.667 374 226.268Z" fill="url(#paint58_linear_0_6216)"/>
<path d="M373.107 222.531L372.037 222.225L364.289 220L364.031 221.134C364.031 221.134 371.314 224.616 369.517 231.393L356.077 280.329C355.77 281.448 356.41 282.609 357.507 282.922C358.604 283.235 359.742 282.582 360.049 281.463L376 223.359L373.107 222.531Z" fill="url(#paint59_linear_0_6216)"/>
<path d="M267.045 54L277 55.8448C276.813 56.6008 276.086 57.1049 275.377 56.9814L267.985 55.6104C267.279 55.4794 266.856 54.7586 267.045 54Z" fill="url(#paint60_linear_0_6216)"/>
<path d="M439 240.159L422.174 299.467C422.028 300.006 421.669 300.463 421.177 300.736C420.684 301.009 420.101 301.073 419.56 300.915C419.013 300.768 418.548 300.411 418.271 299.922C417.993 299.434 417.926 298.856 418.084 298.318L434.907 239L439 240.159Z" fill="url(#paint61_linear_0_6216)"/>
<path d="M458.869 235.891L456.819 242.676C456.309 244.376 454.458 245.36 452.681 244.877L449.016 243.871L444.927 242.733L384.475 226.087L381.49 225.263L380.386 224.948L372.413 222.747L348.42 216.144C346.963 215.74 345.972 214.451 346.001 213C346.21 213.107 346.43 213.192 346.658 213.255L370.651 219.858L378.634 222.059L379.739 222.354L382.697 223.178L443.172 239.843L447.251 240.972L450.912 241.978C451.768 242.216 452.687 242.117 453.466 241.704C454.246 241.291 454.82 240.597 455.063 239.777L457.101 232.992C457.176 232.727 457.219 232.455 457.229 232.18C458.622 232.893 459.305 234.439 458.869 235.891Z" fill="url(#paint62_linear_0_6216)"/>
<path d="M457 232.828C456.99 233.109 456.947 233.388 456.872 233.66L454.839 240.614C454.596 241.455 454.022 242.165 453.245 242.589C452.467 243.012 451.55 243.113 450.696 242.87L447.042 241.839L442.972 240.682L382.621 223.601L379.669 222.757L378.567 222.454L370.6 220.198L346.656 213.43C346.429 213.366 346.209 213.279 346 213.169C346.011 212.887 346.054 212.607 346.128 212.335L348.171 205.383C348.414 204.545 348.986 203.836 349.761 203.413C350.537 202.99 351.452 202.887 352.304 203.127L456.36 232.567C456.582 232.632 456.797 232.719 457 232.828Z" fill="url(#paint63_linear_0_6216)"/>
<path d="M370.837 206.038L387.209 210.273C387.789 210.422 388.124 210.966 387.957 211.487L387.472 213L369 208.223L369.484 206.713C369.563 206.462 369.751 206.25 370.005 206.123C370.258 205.997 370.558 205.966 370.837 206.038Z" fill="url(#paint64_linear_0_6216)"/>
<path d="M390.928 174.225L390.695 175L383 172.854L383.229 172.079C383.453 171.332 384.124 170.867 384.727 171.034L390.231 172.569C390.84 172.739 391.151 173.478 390.928 174.225Z" fill="url(#paint65_linear_0_6216)"/>
<path d="M400 182.019L388.227 211L386.058 210.382L397.824 181.408L379 176L400 182.019Z" fill="url(#paint66_linear_0_6216)"/>
<path d="M397 181.505L385.091 211L372 207.223L377.948 176L397 181.505Z" fill="url(#paint67_linear_0_6216)"/>
<path d="M378.158 173.329C378.747 171.465 380.696 170.391 382.586 170.889L398.281 175.023C400.305 175.557 401.472 177.674 400.842 179.671C400.253 181.535 398.304 182.609 396.414 182.111L380.719 177.977C378.695 177.443 377.528 175.326 378.158 173.329Z" fill="url(#paint68_linear_0_6216)"/>
<path d="M401.451 156.981L394.156 161.297C393.947 161.429 393.784 161.63 393.692 161.871L389.517 172L388 171.528L392.298 161.063C392.573 160.371 393.049 159.792 393.656 159.414L400.954 155.101C401.145 154.98 401.38 154.967 401.582 155.067C401.783 155.167 401.926 155.367 401.964 155.603C402.089 156.133 401.882 156.689 401.451 156.981Z" fill="url(#paint69_linear_0_6216)"/>
<path d="M438 308.248L436.84 312.583C436.139 315.212 434.417 317.438 432.07 318.753C429.722 320.067 426.95 320.357 424.389 319.555L342.972 294.155C340.369 293.345 338.208 291.48 337 289C338.037 289.9 339.246 290.572 340.55 290.977L421.976 316.376C424.539 317.177 427.312 316.886 429.66 315.569C432.008 314.252 433.728 312.022 434.427 309.391L434.988 307.307L438 308.248Z" fill="url(#paint70_linear_0_6216)"/>
<path d="M435 306.376L434.437 308.484C433.734 311.146 432.006 313.402 429.647 314.734C427.289 316.066 424.503 316.361 421.928 315.551L340.125 289.854C338.077 289.509 336.339 288.125 335.509 286.177C334.68 284.229 334.873 281.984 336.021 280.214L337.341 276L435 306.376Z" fill="url(#paint71_linear_0_6216)"/>
<path d="M504.976 198.556C498.673 281.796 458.49 330.158 452.324 328.979C448.815 328.305 446.346 325.668 445 322.512C446.373 324.312 448.351 325.552 450.568 326.003C456.747 327.182 496.92 278.791 503.223 195.58C503.238 195.387 503.238 195.193 503.223 195C504.454 195.738 505.14 197.129 504.976 198.556Z" fill="url(#paint72_linear_0_6216)"/>
<path d="M502.989 193.996C503.004 194.188 503.004 194.382 502.989 194.575C496.731 277.79 456.828 326.157 450.702 324.979C448.501 324.528 446.537 323.288 445.173 321.489C444.171 319.138 443.801 316.562 444.101 314.021C444.747 309.108 460 296.701 468.741 268.01C471.118 260.22 481.727 234.381 482.479 211.038C482.97 195.542 497.816 190.662 502.989 193.996Z" fill="url(#paint73_linear_0_6216)"/>
<path d="M402 342.657V347.343C401.996 348.654 400.971 349.767 399.582 349.969C399.439 349.991 399.295 350.001 399.151 350H385.852C385.212 350.003 384.589 349.802 384.088 349.43C383.4 348.928 382.999 348.158 383 347.343V342.657C383.002 341.189 384.278 340 385.852 340H399.151C400.724 340.002 401.998 341.19 402 342.657Z" fill="url(#paint74_linear_0_6216)"/>
<path d="M460.609 70.1479C462.759 70.7925 463.076 75.8624 462.987 77.113C462.898 78.3635 455.893 83.1723 450.831 85.1062C445.768 87.04 437.283 90.1438 435.756 85.8023C434.166 81.2901 435.159 78.9856 438.031 77.7834C440.066 76.9293 442.464 79.3369 449 76.3427C454.94 73.6063 457.156 69.1294 460.609 70.1479Z" fill="url(#paint75_linear_0_6216)"/>
<path d="M423 73.4086L421.565 75L419 63.6042L420.435 62L423 73.4086Z" fill="url(#paint76_linear_0_6216)"/>
<path d="M426 71.3986L425.48 72L423 60.611L423.531 60L426 71.3986Z" fill="url(#paint77_linear_0_6216)"/>
<path d="M402.825 138C402.825 138 403.83 141.71 401.02 147C401.003 147.011 400.735 140.624 402.825 138Z" fill="url(#paint78_linear_0_6216)"/>
<path d="M401 168.037C401 168.037 409.497 169.622 411 170C411 169.995 402.84 164.86 401 168.037Z" fill="url(#paint79_linear_0_6216)"/>
<path d="M430.757 35.3334C430.757 35.3334 427.013 37.4484 427.013 52.434C427.013 63.0977 426.301 72 435.482 72C444.663 72 445.107 59.3063 445.107 59.3063L454.109 59.4831L455 38.6828L442.789 32.1608C442.789 32.1608 436.73 30.9199 430.757 35.3334Z" fill="#F7C6B0"/>
<path d="M455.46 63.9925C455.46 63.9925 456.885 66.4081 455.937 65.9397C454.99 65.4714 446.828 62.4784 446.828 62.4784V61.2787L444.526 60.3163V59.54C450.419 60.5761 453.033 49.2747 448.514 48.3124C448 48.1903 447.463 48.2003 446.954 48.3412C446.591 48.4494 446.255 48.6295 445.964 48.8705C443.859 50.5611 443.662 55.0457 443.662 55.0457H440.52C440.52 50.4264 439.572 48.7166 439.572 48.7166C439.436 48.7166 439.301 48.7166 439.166 48.7166C437.832 48.7202 436.503 48.5432 435.217 48.1905C429.273 46.5512 428.106 41.6496 428.106 41.6496C427.481 43.5743 427.023 49.2683 427.023 49.2683C423.401 47.7307 421.039 44.2045 421.005 40.2862C420.827 33.4566 425.772 34.4125 425.772 34.4125C425.772 34.4125 428.638 26.5564 442.35 25.084C456.063 23.6116 463 41.9864 463 41.9864L455.46 63.9925Z" fill="url(#paint80_linear_0_6216)"/>
<path fill-rule="evenodd" clip-rule="evenodd" d="M433.839 47.2229L444.108 46L446 47.3788C445.624 47.4819 445.275 47.6535 444.974 47.8832L443.797 47.0242L437.934 47.7242L423.423 49.4729C423.526 50.1353 423.58 50.8033 423.583 51.4723C423.583 51.934 423.533 56 421.792 56C420.05 56 420 51.937 420 51.4723C420 51.0076 420.05 46.9416 421.792 46.9416C422.517 46.9416 422.948 47.6509 423.202 48.5069L425.342 48.2501L433.839 47.2229ZM421 51.6818C421 53.5546 421.451 54.7932 421.75 55.0909C422.049 54.7961 422.5 53.5576 422.5 51.6818C422.5 49.8061 422.049 48.5705 421.75 48.2727C421.451 48.5675 421 49.8091 421 51.6818Z" fill="url(#paint81_linear_0_6216)"/>
<path d="M427.73 52C427.73 52 426.172 55.9819 426.013 56.6165C425.853 57.2511 427.26 58 427.781 58C428.302 58 427.73 52 427.73 52Z" fill="#F48771"/>
<path d="M428 64.73C428 64.73 429.921 65.0209 431 64C430.991 64.0054 429.121 67.9624 428 64.73Z" fill="url(#paint82_linear_0_6216)"/>
<path d="M431 52.0015C431 53.1056 430.551 54 429.998 54C429.445 54 429 53.1056 429 52.0015C429 50.8973 429.449 50 429.998 50C430.546 50 431 50.8973 431 52.0015Z" fill="url(#paint83_linear_0_6216)"/>
<path d="M449 50.0927C449 50.0927 448.493 48.4685 447.295 49.1805C446.096 49.8926 446 52.785 446.537 53.5382C447.074 54.2915 446.631 54.9859 446 54.8976C446.346 55.1164 446.768 54.9746 446.98 54.5681C447.389 53.856 446.063 52.6761 446.664 51.0666C447.264 49.4571 448.81 49.7749 449 50.0927Z" fill="url(#paint84_linear_0_6216)"/>
<path d="M257.539 251.968C259.11 251.506 256.162 243 256.162 243C256.162 243 255.304 252.625 257.539 251.968Z" fill="url(#paint85_linear_0_6216)"/>
<path d="M353 281.755L360.026 284L360.907 280.886C361.074 280.298 361.014 279.664 360.74 279.123C360.466 278.581 360 278.178 359.445 278.001L356.602 277.1C356.047 276.921 355.448 276.984 354.936 277.275C354.425 277.565 354.044 278.06 353.878 278.648L353 281.755Z" fill="url(#paint86_linear_0_6216)"/>
<path d="M417 300.077L424.023 302L424.907 299.329C425.074 298.825 425.014 298.281 424.739 297.817C424.464 297.353 423.998 297.008 423.442 296.857L420.602 296.084C420.047 295.932 419.447 295.987 418.936 296.237C418.425 296.486 418.044 296.91 417.878 297.414L417 300.077Z" fill="url(#paint87_linear_0_6216)"/>
<path d="M464 206C463.264 206.467 462.488 206.879 461.679 207.231C460.86 209.759 460.364 212.366 460.202 215L459.104 208.909L443 207.213C443 207.213 457.054 207.513 459.967 207.213C461.392 207.088 462.77 206.674 464 206Z" fill="url(#paint88_linear_0_6216)"/>
<path d="M464 198.246C464.092 196.693 448 203 448 203C448 203 463.867 200.528 464 198.246Z" fill="url(#paint89_linear_0_6216)"/>
<path d="M273.614 220.977C275.043 220.587 272.044 212 272.044 212C272.044 212 271.586 221.531 273.614 220.977Z" fill="url(#paint90_linear_0_6216)"/>
<circle cx="392" cy="414" r="7" fill="url(#paint91_linear_0_6216)"/>
<path d="M395 413.01C395 414.07 394.578 415.086 393.828 415.834C393.078 416.583 392.061 417.002 391.001 417C389.851 417.005 388.757 416.502 388.012 415.625C387.977 415.607 387.949 415.578 387.931 415.543C386.602 413.959 386.707 411.622 388.172 410.162C389.637 408.703 391.974 408.606 393.555 409.939C393.585 409.955 393.609 409.98 393.625 410.01C394.503 410.758 395.006 411.856 395 413.01Z" fill="url(#paint92_linear_0_6216)"/>
<path d="M395 412.77C395 413.893 394.553 414.969 393.759 415.762C392.964 416.556 391.886 417.001 390.762 417C389.78 417.001 388.828 416.657 388.075 416.028C388.038 416.009 388.007 415.978 387.988 415.941C386.578 414.26 386.689 411.781 388.245 410.233C389.8 408.685 392.283 408.582 393.961 409.997C393.993 410.013 394.019 410.039 394.035 410.071C394.662 410.831 395.003 411.786 395 412.77Z" fill="url(#paint93_linear_0_6216)"/>
<circle cx="355.5" cy="404.5" r="6.5" fill="url(#paint94_linear_0_6216)"/>
<path d="M359 404.504C359 405.433 358.631 406.323 357.974 406.979C357.317 407.635 356.426 408.002 355.498 408C354.49 408.003 353.532 407.563 352.877 406.796C352.847 406.779 352.823 406.754 352.805 406.724C351.653 405.336 351.748 403.296 353.024 402.021C354.301 400.745 356.339 400.654 357.725 401.81C357.753 401.823 357.775 401.845 357.789 401.873C358.561 402.528 359.004 403.491 359 404.504Z" fill="url(#paint95_linear_0_6216)"/>
<path d="M359 404.289C359 406.339 357.335 408 355.281 408C354.423 407.999 353.592 407.697 352.933 407.148C352.901 407.129 352.875 407.103 352.857 407.072C351.63 405.599 351.732 403.436 353.09 402.083C354.448 400.73 356.616 400.633 358.09 401.859C358.119 401.873 358.143 401.897 358.158 401.926C358.706 402.592 359.004 403.428 359 404.289Z" fill="url(#paint96_linear_0_6216)"/>
<circle cx="427.5" cy="404.5" r="6.5" fill="url(#paint97_linear_0_6216)"/>
<path d="M432 404.504C432 405.433 431.631 406.323 430.974 406.979C430.317 407.635 429.426 408.002 428.498 408C427.49 408.004 426.531 407.564 425.877 406.796C425.847 406.779 425.823 406.754 425.805 406.724C424.653 405.336 424.748 403.296 426.024 402.021C427.301 400.745 429.339 400.654 430.725 401.81C430.753 401.823 430.775 401.845 430.789 401.873C431.561 402.528 432.004 403.491 432 404.504Z" fill="url(#paint98_linear_0_6216)"/>
<path d="M431 404.289C431 406.339 429.335 408 427.281 408C426.423 407.999 425.592 407.697 424.933 407.148C424.901 407.129 424.875 407.103 424.857 407.072C423.63 405.599 423.732 403.436 425.09 402.083C426.448 400.73 428.616 400.633 430.09 401.859C430.119 401.873 430.143 401.897 430.158 401.926C430.706 402.592 431.004 403.428 431 404.289Z" fill="url(#paint99_linear_0_6216)"/>
<path d="M130.981 401.877C131.157 402.85 130.066 405.864 130.066 405.864C130.066 405.864 107.192 417.071 78.8438 406.376C78.3339 404.96 78.0491 403.471 78 401.965C78 401.553 78.3208 400.395 78.863 400.57C78.863 400.57 107.195 410.003 129.126 399C129.126 399 130.432 398.913 130.981 401.877Z" fill="url(#paint100_linear_0_6216)"/>
<path d="M128.156 400.651C105.976 411.687 77.3224 402.226 77.3224 402.226C77.3224 402.226 69.4802 395.68 65.5185 380.671C64.9059 378.372 64.427 376.038 64.0844 373.683C64.0519 373.504 64.0195 373.325 64 373.146L64.8793 372.443C64.8815 372.45 64.8815 372.457 64.8793 372.463C64.8176 372.717 64.4283 374.74 68.8604 373.345C73.5781 371.832 116.164 353.173 128.993 341.093L128.782 340H128.815C129.759 340.14 130.664 340.472 131.475 340.976C131.786 341.186 132.04 341.471 132.212 341.806C132.358 342.131 132.715 343.719 133.068 346.36C134.298 355.428 135.534 376.751 128.156 400.651Z" fill="url(#paint101_linear_0_6216)"/>
<path d="M124.066 400.653C114.314 405.435 103.327 406.368 94 405.887C101.283 405.562 109.021 404.111 116.123 400.631C123.618 376.749 122.362 355.418 121.106 346.362C121.011 345.637 120.902 344.986 120.82 344.411C122.243 343.38 123.607 342.273 124.906 341.093L124.692 340H124.725C125.685 340.14 126.605 340.472 127.431 340.976C127.746 341.186 128.002 341.471 128.175 341.805C128.324 342.131 128.686 343.718 129.049 346.359C130.304 355.441 131.56 376.759 124.066 400.653Z" fill="url(#paint102_linear_0_6216)"/>
<path d="M129.708 338.909L129.92 340.011C129.287 340.601 128.592 341.218 127.821 341.841C127.316 342.254 126.777 342.681 126.209 343.104C126.168 343.144 126.122 343.18 126.072 343.209C125.419 343.708 124.711 344.216 123.983 344.724C123.846 344.82 123.709 344.915 123.572 345C124.342 343.993 129.698 336.439 124.626 328.556C123.215 326.297 121.271 324.422 118.967 323.098C118.202 322.665 117.413 322.276 116.604 321.933C113.735 320.693 111.143 320.067 109.707 318.023C109.493 317.728 109.309 317.411 109.159 317.078C108.875 316.44 108.742 315.744 108.77 315.045C108.885 310.37 115.053 305.04 113.281 300.113C111.248 294.445 108.105 297.125 104.776 293.49C102.275 290.777 103.519 278.932 97.3732 275.275C96.3569 274.685 95.221 274.334 94.0506 274.248C92.4579 274.11 90.5518 274.333 88.2638 275.042C87.1316 275.387 86.0378 275.849 85 276.42C86.7821 273.189 89.6607 270.328 94.4651 268.832C96.7498 268.124 98.6624 267.901 100.255 268.039C101.426 268.125 102.561 268.476 103.578 269.065C109.724 272.723 108.473 284.568 110.977 287.281C114.309 290.915 117.452 288.235 119.486 293.903C121.258 298.824 115.089 304.161 114.975 308.835C114.946 309.534 115.079 310.23 115.363 310.869C115.514 311.202 115.698 311.518 115.912 311.814C117.348 313.857 119.939 314.484 122.808 315.724C123.616 316.066 124.404 316.455 125.168 316.888C127.474 318.211 129.419 320.086 130.831 322.347C136.298 330.836 129.708 338.909 129.708 338.909Z" fill="url(#paint103_linear_0_6216)"/>
<path d="M70 372.133C69.5687 372.303 69.2249 372.431 68.9817 372.504C64.5518 373.924 64.9409 371.87 65.0025 371.614C65.0048 371.608 65.0048 371.601 65.0025 371.595C65.0025 371.595 52.5981 362.765 60.7866 351.104C61.8666 349.549 52.6143 341.025 49.7864 333.892C49.3335 332.816 49.0679 331.67 49.0016 330.502C49.0016 330.427 49.0016 330.351 49.0016 330.279C48.9725 329.118 49.3504 327.984 50.0685 327.077C50.7917 326.188 51.9138 325.594 53.1785 325C52.9918 325.607 52.8999 326.241 52.9061 326.877C52.9061 326.949 52.9061 327.034 52.9061 327.11C52.9692 328.348 53.2344 329.568 53.6909 330.719C56.5188 338.265 65.7711 347.318 64.6912 348.958C56.5188 361.318 68.9233 370.676 68.9233 370.676C68.9258 370.683 68.9258 370.691 68.9233 370.699C68.8682 370.873 68.6704 371.965 70 372.133Z" fill="url(#paint104_linear_0_6216)"/>
<path d="M123.768 345.383C120.704 347.45 117.128 349.601 113.26 351.748L110.673 353.172C110.673 353.172 110.653 353.172 110.643 353.195C110.269 353.391 109.888 353.6 109.507 353.796C109.441 353.838 109.369 353.866 109.303 353.908L107.914 354.648L107.714 354.75C107.248 355.001 106.768 355.249 106.292 355.499C103.281 357.055 100.224 358.592 97.2026 360.058C96.628 360.337 96.0665 360.607 95.5049 360.868C95.1963 361.022 94.8876 361.167 94.5822 361.315C94.0831 361.553 93.5971 361.79 93.0848 362.019C87.1019 364.854 81.5228 367.336 77.2277 369.174C76.942 369.29 76.6662 369.412 76.3903 369.528L76.305 369.56C76.1342 369.64 75.9536 369.714 75.7861 369.788C75.53 369.891 75.287 369.994 75.044 370.11C74.801 370.226 74.6303 370.277 74.4365 370.361C72.6863 371.087 71.2874 371.646 70.322 372C68.9757 371.836 69.176 370.766 69.2187 370.579C69.2212 370.572 69.2212 370.564 69.2187 370.557C69.2187 370.557 56.6584 361.389 64.9334 349.279C66.0269 347.672 56.6584 338.812 53.795 331.409C53.3327 330.282 53.0642 329.087 53.0003 327.873C53.0003 327.799 53.0003 327.716 53.0003 327.645C52.994 327.022 53.087 326.401 53.2761 325.806C53.6045 325.662 53.9657 325.504 54.3269 325.35C55.2814 324.942 56.2063 324.47 57.0951 323.939C57.5825 323.641 58.0379 323.297 58.4546 322.91C59.1252 322.307 59.6656 321.579 60.0439 320.769C61.0947 318.609 61.2556 315.413 59.6728 310.367C58.2411 305.776 57.9883 302.057 58.7501 299.244C59.4069 296.897 60.7204 295.174 62.6906 294.101C65.6919 292.407 70.148 292.239 75.6843 293.663C76.5644 293.882 77.4772 294.152 78.4098 294.451C80.6789 295.19 81.1058 292.542 81.7395 288.732C81.9628 287.446 82.2091 286.019 82.5572 284.553C82.8664 283.213 83.278 281.898 83.7886 280.619C84.1225 279.776 84.5153 278.956 84.9642 278.166C85.5513 277.85 86.1577 277.57 86.7801 277.327C87.2464 277.14 87.7356 276.973 88.2446 276.816C90.5432 276.121 92.4642 275.903 94.0667 276.038C95.2442 276.122 96.387 276.466 97.4095 277.044C103.593 280.628 102.335 292.236 104.857 294.895C108.206 298.456 111.369 295.83 113.414 301.385C115.197 306.207 108.991 311.437 108.876 316.018C108.847 316.703 108.981 317.385 109.267 318.011C109.419 318.337 109.603 318.647 109.819 318.937C111.264 320.939 113.871 321.553 116.757 322.768C117.571 323.104 118.365 323.485 119.135 323.91C121.453 325.207 123.409 327.044 124.829 329.259C129.932 336.993 124.543 344.396 123.768 345.383Z" fill="url(#paint105_linear_0_6216)"/>
<path d="M96 360.176C95.4069 360.46 94.8274 360.735 94.2479 361C83.4033 344.4 70.427 304.64 70 303.309L81.7901 329.113C90.8657 314.423 95.2748 295.194 95.5493 294C93.36 318.957 83.0102 331.71 82.9831 331.719L96 360.176Z" fill="url(#paint106_linear_0_6216)"/>
<path d="M76 369.673C75.7465 369.778 75.5059 369.882 75.2654 370C75.2679 369.994 75.2679 369.987 75.2654 369.98C69.1644 349.308 62.6994 333.821 57.489 323.117C51.3685 310.553 47 304.584 47 304.584L49.0998 303C52.7434 309.478 55.9873 315.911 58.8509 322.072C70.2273 346.689 75.4084 367.081 75.974 369.455C75.9772 369.598 76 369.673 76 369.673Z" fill="url(#paint107_linear_0_6216)"/>
<path d="M74.997 370.743C74.7872 370.829 74.5903 370.914 74.3999 371C70.2043 363.329 55.9362 337.923 50.2237 334.246C39.9123 327.621 21 330.242 21 330.242V327.845C21 327.845 38.9538 324.596 49.4427 330.839C49.9695 331.136 50.4772 331.466 50.9628 331.829C60.9676 339.298 74.5774 369.753 74.9937 370.713C75.0007 370.721 75.002 370.733 74.997 370.743Z" fill="url(#paint108_linear_0_6216)"/>
<path d="M77 369.768C76.8405 369.849 76.6718 369.925 76.5153 370C76.5153 370 76.4939 369.925 76.4632 369.768C75.7914 366.306 67.7637 325.033 70.6073 324.017C73.319 323.045 76.4755 362.986 77 369.768Z" fill="url(#paint109_linear_0_6216)"/>
<path d="M77.6774 370.637C77.4463 370.756 77.2231 370.881 77 371C77.0425 366.642 77.4622 334.172 79.3907 334.001C81.2396 333.842 78.3547 363.805 77.6774 370.637Z" fill="url(#paint110_linear_0_6216)"/>
<path d="M111 351.4C110.628 351.596 110.249 351.804 109.87 352C106.969 344.523 91.4326 304.489 83.034 282.936C79.9732 275.106 77.8629 269.71 77.631 269.203C76.713 267.128 43.736 260.915 42.8083 260.398C41.8805 259.882 41.8903 257.538 42.1549 257.022C42.4195 256.506 77.9054 265.182 79.2153 266.478C79.542 266.798 81.4726 271.688 84.259 279.011C92.8046 301.487 109.298 346.716 111 351.4Z" fill="url(#paint111_linear_0_6216)"/>
<path d="M110 353.265L108.628 354C104.248 346.915 84.6506 315.278 83.9499 314.481C83.1746 313.573 70.0749 313.842 70.0003 313.18C69.9257 312.518 84.0862 311.383 84.9978 312.416C85.825 313.346 106.052 346.739 110 353.265Z" fill="url(#paint112_linear_0_6216)"/>
<path d="M108 354.243C107.53 354.496 107.047 354.747 106.568 355C100.746 349.132 82.4223 330.389 84.1092 329.063C85.849 327.702 103.426 348.713 108 354.243Z" fill="url(#paint113_linear_0_6216)"/>
<path d="M113 351.542L110.572 353C109.568 348.886 101.594 316.022 103.217 315.021C104.721 314.096 111.302 343.709 113 351.542Z" fill="url(#paint114_linear_0_6216)"/>
<path d="M127 341.739C126.514 342.152 125.997 342.577 125.452 343L122.204 315.66L117 271.93L119.531 268L124.469 316.82L127 341.739Z" fill="url(#paint115_linear_0_6216)"/>
<path d="M125 343.507C124.349 343.999 123.643 344.499 122.917 345C114.832 325.161 105.106 291.087 99.247 269.477C96.0506 257.653 94 249.567 94 249.567L97.154 248C98.7815 255.482 100.614 263.048 102.56 270.488C106.219 284.506 110.278 298.052 113.927 309.657C114.252 310.649 114.558 311.627 114.861 312.59C119.847 328.23 123.926 339.867 125 343.507Z" fill="url(#paint116_linear_0_6216)"/>
<path d="M97.4113 251.325C95.4288 251.698 93.5195 250.393 93.1468 248.41L89.6746 229.939C89.302 227.957 90.6066 226.048 92.5887 225.675C94.5712 225.302 96.4805 226.607 96.8532 228.59L100.325 247.061C100.698 249.043 99.3934 250.952 97.4113 251.325Z" fill="url(#paint117_linear_0_6216)"/>
<path d="M118.609 275.675C116.696 275.854 115.006 274.435 114.851 272.52L113.275 253.036C113.122 251.155 114.511 249.5 116.391 249.325C118.304 249.146 119.994 250.565 120.149 252.48L121.725 271.964C121.878 273.845 120.489 275.5 118.609 275.675Z" fill="url(#paint118_linear_0_6216)"/>
<path d="M46.9939 259.501C46.4508 261.441 44.4498 262.585 42.5027 262.068L23.6073 257.051C21.6229 256.524 20.4527 254.476 21.0061 252.499C21.5492 250.559 23.5502 249.415 25.4973 249.932L44.3927 254.949C46.3771 255.476 47.5473 257.524 46.9939 259.501Z" fill="url(#paint119_linear_0_6216)"/>
<path d="M49.6232 307.571C48.2815 308.357 46.5558 307.895 45.7869 306.543L35.3621 288.216C34.607 286.889 35.0592 285.201 36.3768 284.429C37.7185 283.643 39.4442 284.105 40.2131 285.457L50.6379 303.784C51.393 305.111 50.9408 306.799 49.6232 307.571Z" fill="url(#paint120_linear_0_6216)"/>
<path d="M26.8272 330.282C26.922 331.592 25.9212 332.723 24.61 332.788L2.62336 333.886C1.35298 333.949 0.264593 332.986 0.172763 331.718C0.0779806 330.408 1.07879 329.277 2.39003 329.212L24.3766 328.114C25.647 328.051 26.7354 329.014 26.8272 330.282Z" fill="url(#paint121_linear_0_6216)"/>
</g>
<defs>
<linearGradient id="paint0_linear_0_6216" x1="355" y1="413.005" x2="430" y2="413.005" gradientUnits="userSpaceOnUse">
<stop stop-color="#D8E1F2"/>
<stop offset="1" stop-color="#D2DEE8"/>
</linearGradient>
<linearGradient id="paint1_linear_0_6216" x1="385" y1="342.998" x2="398" y2="342.998" gradientUnits="userSpaceOnUse">
<stop stop-color="#D8E1F2"/>
<stop offset="1" stop-color="#D2DEE8"/>
</linearGradient>
<linearGradient id="paint2_linear_0_6216" x1="497" y1="195" x2="504" y2="195" gradientUnits="userSpaceOnUse">
<stop stop-color="#D8E1F2"/>
<stop offset="1" stop-color="#D2DEE8"/>
</linearGradient>
<linearGradient id="paint3_linear_0_6216" x1="495.987" y1="185.014" x2="524.999" y2="185.014" gradientUnits="userSpaceOnUse">
<stop stop-color="#75B0E2"/>
<stop offset="1" stop-color="#7188D9"/>
</linearGradient>
<linearGradient id="paint4_linear_0_6216" x1="494.984" y1="182.035" x2="524.01" y2="182.035" gradientUnits="userSpaceOnUse">
<stop stop-color="#75B0E2"/>
<stop offset="1" stop-color="#7A97D9"/>
</linearGradient>
<linearGradient id="paint5_linear_0_6216" x1="434" y1="316.001" x2="447" y2="316.001" gradientUnits="userSpaceOnUse">
<stop stop-color="#D8E1F2"/>
<stop offset="1" stop-color="#D2DEE8"/>
</linearGradient>
<linearGradient id="paint6_linear_0_6216" x1="377.993" y1="318.005" x2="405.993" y2="318.005" gradientUnits="userSpaceOnUse">
<stop stop-color="#1B3A56"/>
<stop offset="1" stop-color="#082947"/>
</linearGradient>
<linearGradient id="paint7_linear_0_6216" x1="123.006" y1="118.058" x2="123.006" y2="150" gradientUnits="userSpaceOnUse">
<stop stop-color="#FFC174"/>
<stop offset="1" stop-color="#FFB661"/>
</linearGradient>
<linearGradient id="paint8_linear_0_6216" x1="102.991" y1="397.034" x2="134" y2="397.034" gradientUnits="userSpaceOnUse">
<stop stop-color="#E5ECF5"/>
<stop offset="1" stop-color="#E9EBF3"/>
</linearGradient>
<linearGradient id="paint9_linear_0_6216" x1="290" y1="397.009" x2="321.002" y2="397.009" gradientUnits="userSpaceOnUse">
<stop stop-color="#E5ECF5"/>
<stop offset="1" stop-color="#E9EBF3"/>
</linearGradient>
<linearGradient id="paint10_linear_0_6216" x1="267" y1="171.002" x2="294.002" y2="171.002" gradientUnits="userSpaceOnUse">
<stop stop-color="#D8E1F2"/>
<stop offset="1" stop-color="#C7D6EB"/>
</linearGradient>
<linearGradient id="paint11_linear_0_6216" x1="267" y1="170.999" x2="289.996" y2="170.999" gradientUnits="userSpaceOnUse">
<stop stop-color="#D8E1F2"/>
<stop offset="1" stop-color="#D2DEE8"/>
</linearGradient>
<linearGradient id="paint12_linear_0_6216" x1="270.001" y1="166.998" x2="275" y2="166.998" gradientUnits="userSpaceOnUse">
<stop stop-color="#1B3A56"/>
<stop offset="1" stop-color="#082947"/>
</linearGradient>
<linearGradient id="paint13_linear_0_6216" x1="195" y1="172" x2="219" y2="172" gradientUnits="userSpaceOnUse">
<stop stop-color="#D8E1F2"/>
<stop offset="1" stop-color="#D2DEE8"/>
</linearGradient>
<linearGradient id="paint14_linear_0_6216" x1="180" y1="172" x2="218" y2="172" gradientUnits="userSpaceOnUse">
<stop stop-color="#1B3A56"/>
<stop offset="1" stop-color="#082947"/>
</linearGradient>
<linearGradient id="paint15_linear_0_6216" x1="181" y1="172" x2="219" y2="172" gradientUnits="userSpaceOnUse">
<stop stop-color="#D8E1F2"/>
<stop offset="1" stop-color="#D2DEE8"/>
</linearGradient>
<linearGradient id="paint16_linear_0_6216" x1="149" y1="162" x2="265.003" y2="162" gradientUnits="userSpaceOnUse">
<stop stop-color="#D8E1F2"/>
<stop offset="1" stop-color="#D2E6E8"/>
</linearGradient>
<linearGradient id="paint17_linear_0_6216" x1="412.001" y1="77.9947" x2="423.985" y2="77.9947" gradientUnits="userSpaceOnUse">
<stop stop-color="#1B3A56"/>
<stop offset="1" stop-color="#082947"/>
</linearGradient>
<linearGradient id="paint18_linear_0_6216" x1="409.6" y1="79.462" x2="436.376" y2="79.462" gradientUnits="userSpaceOnUse">
<stop stop-color="#EAF2F2"/>
<stop offset="1" stop-color="#E9ECE8"/>
</linearGradient>
<linearGradient id="paint19_linear_0_6216" x1="411.997" y1="76.0077" x2="435.001" y2="76.0077" gradientUnits="userSpaceOnUse">
<stop stop-color="#D8E1F2"/>
<stop offset="1" stop-color="#D2DEE8"/>
</linearGradient>
<linearGradient id="paint20_linear_0_6216" x1="414.697" y1="74.5524" x2="418.292" y2="74.5524" gradientUnits="userSpaceOnUse">
<stop stop-color="#EBF3F2"/>
<stop offset="1" stop-color="#E1E7E8"/>
</linearGradient>
<linearGradient id="paint21_linear_0_6216" x1="379.991" y1="169.022" x2="434" y2="169.022" gradientUnits="userSpaceOnUse">
<stop stop-color="#FF9B61"/>
<stop offset="0.26" stop-color="#FF9860"/>
<stop offset="1" stop-color="#FF945F"/>
</linearGradient>
<linearGradient id="paint22_linear_0_6216" x1="409.444" y1="72.952" x2="352.207" y2="107.74" gradientUnits="userSpaceOnUse">
<stop stop-color="#1B3A56"/>
<stop offset="1" stop-color="#082947"/>
</linearGradient>
<linearGradient id="paint23_linear_0_6216" x1="164.998" y1="395.002" x2="211" y2="395.002" gradientUnits="userSpaceOnUse">
<stop stop-color="#79ABE2"/>
<stop offset="1" stop-color="#6497D9"/>
</linearGradient>
<linearGradient id="paint24_linear_0_6216" x1="197" y1="375.987" x2="458" y2="375.987" gradientUnits="userSpaceOnUse">
<stop stop-color="#D7E1F3"/>
<stop offset="0.36" stop-color="#D4DEED"/>
<stop offset="1" stop-color="#D1DBE8"/>
</linearGradient>
<linearGradient id="paint25_linear_0_6216" x1="309.999" y1="294.999" x2="453" y2="294.999" gradientUnits="userSpaceOnUse">
<stop stop-color="#1B3A56"/>
<stop offset="1" stop-color="#082947"/>
</linearGradient>
<linearGradient id="paint26_linear_0_6216" x1="374.476" y1="220.986" x2="371.757" y2="254.725" gradientUnits="userSpaceOnUse">
<stop stop-color="#1B3A56"/>
<stop offset="1" stop-color="#082947"/>
</linearGradient>
<linearGradient id="paint27_linear_0_6216" x1="436" y1="74.9855" x2="443" y2="74.9855" gradientUnits="userSpaceOnUse">
<stop stop-color="#1B3A56"/>
<stop offset="1" stop-color="#082947"/>
</linearGradient>
<linearGradient id="paint28_linear_0_6216" x1="401.001" y1="89.9988" x2="414.999" y2="89.9988" gradientUnits="userSpaceOnUse">
<stop stop-color="#D8E1F2"/>
<stop offset="1" stop-color="#D2DEE8"/>
</linearGradient>
<linearGradient id="paint29_linear_0_6216" x1="437.93" y1="25.823" x2="305.319" y2="134.557" gradientUnits="userSpaceOnUse">
<stop stop-color="#FF9B61"/>
<stop offset="0.26" stop-color="#FF9860"/>
<stop offset="1" stop-color="#FF945F"/>
</linearGradient>
<linearGradient id="paint30_linear_0_6216" x1="400" y1="168" x2="436" y2="168" gradientUnits="userSpaceOnUse">
<stop stop-color="#1B3A56"/>
<stop offset="1" stop-color="#082947"/>
</linearGradient>
<linearGradient id="paint31_linear_0_6216" x1="383" y1="199.998" x2="471" y2="199.998" gradientUnits="userSpaceOnUse">
<stop stop-color="#1B3A56"/>
<stop offset="1" stop-color="#082947"/>
</linearGradient>
<linearGradient id="paint32_linear_0_6216" x1="307" y1="171.001" x2="315.999" y2="171.001" gradientUnits="userSpaceOnUse">
<stop stop-color="#D8E1F2"/>
<stop offset="1" stop-color="#D2DEE8"/>
</linearGradient>
<linearGradient id="paint33_linear_0_6216" x1="313.001" y1="191.012" x2="474.001" y2="191.012" gradientUnits="userSpaceOnUse">
<stop stop-color="#FF9B61"/>
<stop offset="0.26" stop-color="#FF9860"/>
<stop offset="1" stop-color="#FF945F"/>
</linearGradient>
<linearGradient id="paint34_linear_0_6216" x1="108" y1="178.003" x2="314.003" y2="178.003" gradientUnits="userSpaceOnUse">
<stop stop-color="#FFC174"/>
<stop offset="1" stop-color="#FFB661"/>
</linearGradient>
<linearGradient id="paint35_linear_0_6216" x1="116.003" y1="181.998" x2="141" y2="181.998" gradientUnits="userSpaceOnUse">
<stop stop-color="#1B3A56"/>
<stop offset="1" stop-color="#082947"/>
</linearGradient>
<linearGradient id="paint36_linear_0_6216" x1="281.003" y1="181.998" x2="306" y2="181.998" gradientUnits="userSpaceOnUse">
<stop stop-color="#1B3A56"/>
<stop offset="1" stop-color="#082947"/>
</linearGradient>
<linearGradient id="paint37_linear_0_6216" x1="114" y1="171.001" x2="133" y2="171.001" gradientUnits="userSpaceOnUse">
<stop stop-color="#75B0E2"/>
<stop offset="1" stop-color="#7A97D9"/>
</linearGradient>
<linearGradient id="paint38_linear_0_6216" x1="115" y1="171.007" x2="132.006" y2="171.007" gradientUnits="userSpaceOnUse">
<stop stop-color="#96C0DA"/>
<stop offset="1" stop-color="#AEC5ED"/>
</linearGradient>
<linearGradient id="paint39_linear_0_6216" x1="114" y1="171.001" x2="131" y2="171.001" gradientUnits="userSpaceOnUse">
<stop stop-color="#75B0E2"/>
<stop offset="1" stop-color="#7A97D9"/>
</linearGradient>
<linearGradient id="paint40_linear_0_6216" x1="117.012" y1="172.002" x2="130.015" y2="172.002" gradientUnits="userSpaceOnUse">
<stop stop-color="#D8E1F2"/>
<stop offset="1" stop-color="#D2DEE8"/>
</linearGradient>
<linearGradient id="paint41_linear_0_6216" x1="115" y1="149.978" x2="118" y2="149.978" gradientUnits="userSpaceOnUse">
<stop stop-color="#FFC174"/>
<stop offset="1" stop-color="#FFB773"/>
</linearGradient>
<linearGradient id="paint42_linear_0_6216" x1="129.003" y1="132.034" x2="129.003" y2="150" gradientUnits="userSpaceOnUse">
<stop stop-color="#FFBC6E"/>
<stop offset="1" stop-color="#FFBF61"/>
</linearGradient>
<linearGradient id="paint43_linear_0_6216" x1="123.992" y1="151" x2="123.992" y2="126.056" gradientUnits="userSpaceOnUse">
<stop stop-color="#FFBC6E"/>
<stop offset="1" stop-color="#FFBF61"/>
</linearGradient>
<linearGradient id="paint44_linear_0_6216" x1="180" y1="172" x2="204" y2="172" gradientUnits="userSpaceOnUse">
<stop stop-color="#1B3A56"/>
<stop offset="1" stop-color="#082947"/>
</linearGradient>
<linearGradient id="paint45_linear_0_6216" x1="151" y1="162" x2="266" y2="162" gradientUnits="userSpaceOnUse">
<stop stop-color="#1B3A56"/>
<stop offset="1" stop-color="#082947"/>
</linearGradient>
<linearGradient id="paint46_linear_0_6216" x1="151" y1="161.995" x2="266" y2="161.995" gradientUnits="userSpaceOnUse">
<stop stop-color="#D9EBF2"/>
<stop offset="1" stop-color="#D6E7E8"/>
</linearGradient>
<linearGradient id="paint47_linear_0_6216" x1="154" y1="147.002" x2="263" y2="147.002" gradientUnits="userSpaceOnUse">
<stop stop-color="#D8E1F2"/>
<stop offset="1" stop-color="#D2DEE8"/>
</linearGradient>
<linearGradient id="paint48_linear_0_6216" x1="248" y1="62.9987" x2="340" y2="62.9987" gradientUnits="userSpaceOnUse">
<stop stop-color="#FFC174"/>
<stop offset="1" stop-color="#FFB661"/>
</linearGradient>
<linearGradient id="paint49_linear_0_6216" x1="317" y1="58" x2="319" y2="58" gradientUnits="userSpaceOnUse">
<stop stop-color="#FF9B61"/>
<stop offset="0.26" stop-color="#FF9860"/>
<stop offset="1" stop-color="#FF945F"/>
</linearGradient>
<linearGradient id="paint50_linear_0_6216" x1="304" y1="58" x2="306" y2="58" gradientUnits="userSpaceOnUse">
<stop stop-color="#FF9B61"/>
<stop offset="0.26" stop-color="#FF9860"/>
<stop offset="1" stop-color="#FF945F"/>
</linearGradient>
<linearGradient id="paint51_linear_0_6216" x1="301" y1="58" x2="303" y2="58" gradientUnits="userSpaceOnUse">
<stop stop-color="#79ABE2"/>
<stop offset="1" stop-color="#6497D9"/>
</linearGradient>
<linearGradient id="paint52_linear_0_6216" x1="290" y1="58" x2="292" y2="58" gradientUnits="userSpaceOnUse">
<stop stop-color="#79ABE2"/>
<stop offset="1" stop-color="#6497D9"/>
</linearGradient>
<linearGradient id="paint53_linear_0_6216" x1="224.83" y1="268.835" x2="340.315" y2="268.835" gradientUnits="userSpaceOnUse">
<stop stop-color="#FFBC6E"/>
<stop offset="1" stop-color="#FFBF61"/>
</linearGradient>
<linearGradient id="paint54_linear_0_6216" x1="214.778" y1="266.899" x2="330.293" y2="266.899" gradientUnits="userSpaceOnUse">
<stop stop-color="#FFBC6E"/>
<stop offset="1" stop-color="#FFBF61"/>
</linearGradient>
<linearGradient id="paint55_linear_0_6216" x1="219.013" y1="272.994" x2="273" y2="272.994" gradientUnits="userSpaceOnUse">
<stop stop-color="#1B3A56"/>
<stop offset="1" stop-color="#082947"/>
</linearGradient>
<linearGradient id="paint56_linear_0_6216" x1="137.001" y1="314.999" x2="178.003" y2="314.999" gradientUnits="userSpaceOnUse">
<stop stop-color="#79ABE2"/>
<stop offset="1" stop-color="#6497D9"/>
</linearGradient>
<linearGradient id="paint57_linear_0_6216" x1="169.98" y1="298.999" x2="374.99" y2="298.999" gradientUnits="userSpaceOnUse">
<stop stop-color="#D7E1F3"/>
<stop offset="0.36" stop-color="#D4DEED"/>
<stop offset="1" stop-color="#D1DBE8"/>
</linearGradient>
<linearGradient id="paint58_linear_0_6216" x1="289" y1="236.014" x2="374" y2="236.014" gradientUnits="userSpaceOnUse">
<stop stop-color="#1B3A56"/>
<stop offset="1" stop-color="#082947"/>
</linearGradient>
<linearGradient id="paint59_linear_0_6216" x1="356.004" y1="282.993" x2="376" y2="282.993" gradientUnits="userSpaceOnUse">
<stop stop-color="#FFC174"/>
<stop offset="1" stop-color="#FFB661"/>
</linearGradient>
<linearGradient id="paint60_linear_0_6216" x1="267.002" y1="56.9993" x2="277" y2="56.9993" gradientUnits="userSpaceOnUse">
<stop stop-color="#FFBC6E"/>
<stop offset="1" stop-color="#FFBF61"/>
</linearGradient>
<linearGradient id="paint61_linear_0_6216" x1="418.008" y1="300.994" x2="439" y2="300.994" gradientUnits="userSpaceOnUse">
<stop stop-color="#FFC174"/>
<stop offset="1" stop-color="#FFB661"/>
</linearGradient>
<linearGradient id="paint62_linear_0_6216" x1="344.655" y1="244.678" x2="457.203" y2="253.296" gradientUnits="userSpaceOnUse">
<stop stop-color="#75B0E2"/>
<stop offset="1" stop-color="#7188D9"/>
</linearGradient>
<linearGradient id="paint63_linear_0_6216" x1="345.993" y1="242.993" x2="457" y2="242.993" gradientUnits="userSpaceOnUse">
<stop stop-color="#75B0E2"/>
<stop offset="1" stop-color="#7A97D9"/>
</linearGradient>
<linearGradient id="paint64_linear_0_6216" x1="368.579" y1="213.021" x2="387.17" y2="215.163" gradientUnits="userSpaceOnUse">
<stop stop-color="#D8E1F2"/>
<stop offset="1" stop-color="#D2DEE8"/>
</linearGradient>
<linearGradient id="paint65_linear_0_6216" x1="382.922" y1="175.001" x2="390.922" y2="175.201" gradientUnits="userSpaceOnUse">
<stop stop-color="#1B3A56"/>
<stop offset="1" stop-color="#082947"/>
</linearGradient>
<linearGradient id="paint66_linear_0_6216" x1="378.845" y1="211.002" x2="399.885" y2="211.05" gradientUnits="userSpaceOnUse">
<stop stop-color="#FFB27B"/>
<stop offset="1" stop-color="#FFAF61"/>
</linearGradient>
<linearGradient id="paint67_linear_0_6216" x1="372" y1="210.998" x2="397" y2="210.998" gradientUnits="userSpaceOnUse">
<stop stop-color="#FFC174"/>
<stop offset="1" stop-color="#FFB661"/>
</linearGradient>
<linearGradient id="paint68_linear_0_6216" x1="376.548" y1="183.037" x2="401.856" y2="183.972" gradientUnits="userSpaceOnUse">
<stop stop-color="#D8E1F2"/>
<stop offset="1" stop-color="#D2DEE8"/>
</linearGradient>
<linearGradient id="paint69_linear_0_6216" x1="387.985" y1="171.921" x2="401.891" y2="171.986" gradientUnits="userSpaceOnUse">
<stop stop-color="#D8E1F2"/>
<stop offset="1" stop-color="#D2DEE8"/>
</linearGradient>
<linearGradient id="paint70_linear_0_6216" x1="337" y1="319.994" x2="438" y2="319.994" gradientUnits="userSpaceOnUse">
<stop stop-color="#75B0E2"/>
<stop offset="1" stop-color="#7188D9"/>
</linearGradient>
<linearGradient id="paint71_linear_0_6216" x1="335.532" y1="315.901" x2="435" y2="315.901" gradientUnits="userSpaceOnUse">
<stop stop-color="#75B0E2"/>
<stop offset="1" stop-color="#7A97D9"/>
</linearGradient>
<linearGradient id="paint72_linear_0_6216" x1="445" y1="328.991" x2="504.992" y2="328.991" gradientUnits="userSpaceOnUse">
<stop stop-color="#FFB27B"/>
<stop offset="1" stop-color="#FFAF61"/>
</linearGradient>
<linearGradient id="paint73_linear_0_6216" x1="443.991" y1="325.007" x2="502.999" y2="325.007" gradientUnits="userSpaceOnUse">
<stop stop-color="#FFC174"/>
<stop offset="1" stop-color="#FFB661"/>
</linearGradient>
<linearGradient id="paint74_linear_0_6216" x1="383" y1="350" x2="402" y2="350" gradientUnits="userSpaceOnUse">
<stop stop-color="#FFC174"/>
<stop offset="1" stop-color="#FFB661"/>
</linearGradient>
<linearGradient id="paint75_linear_0_6216" x1="435.001" y1="87.9918" x2="463" y2="87.9918" gradientUnits="userSpaceOnUse">
<stop stop-color="#D8E1F2"/>
<stop offset="1" stop-color="#D2DEE8"/>
</linearGradient>
<linearGradient id="paint76_linear_0_6216" x1="419" y1="75" x2="423" y2="75" gradientUnits="userSpaceOnUse">
<stop stop-color="#EAF2F2"/>
<stop offset="1" stop-color="#E9ECE8"/>
</linearGradient>
<linearGradient id="paint77_linear_0_6216" x1="423" y1="71.9984" x2="426" y2="71.9984" gradientUnits="userSpaceOnUse">
<stop stop-color="#EAF2F2"/>
<stop offset="1" stop-color="#E9ECE8"/>
</linearGradient>
<linearGradient id="paint78_linear_0_6216" x1="403.626" y1="127.325" x2="398.024" y2="127.727" gradientUnits="userSpaceOnUse">
<stop stop-color="#1B3A56"/>
<stop offset="1" stop-color="#082947"/>
</linearGradient>
<linearGradient id="paint79_linear_0_6216" x1="401" y1="169.999" x2="411" y2="169.999" gradientUnits="userSpaceOnUse">
<stop stop-color="#1B3A56"/>
<stop offset="1" stop-color="#082947"/>
</linearGradient>
<linearGradient id="paint80_linear_0_6216" x1="421.008" y1="66.0031" x2="463.01" y2="66.0031" gradientUnits="userSpaceOnUse">
<stop stop-color="#1B3A56"/>
<stop offset="1" stop-color="#082947"/>
</linearGradient>
<linearGradient id="paint81_linear_0_6216" x1="420" y1="56.0046" x2="446" y2="56.0046" gradientUnits="userSpaceOnUse">
<stop stop-color="#D9EBF2"/>
<stop offset="1" stop-color="#D6E7E8"/>
</linearGradient>
<linearGradient id="paint82_linear_0_6216" x1="428" y1="66.0047" x2="431" y2="66.0047" gradientUnits="userSpaceOnUse">
<stop stop-color="#1B3A56"/>
<stop offset="1" stop-color="#082947"/>
</linearGradient>
<linearGradient id="paint83_linear_0_6216" x1="429" y1="54.0015" x2="431" y2="54.0015" gradientUnits="userSpaceOnUse">
<stop stop-color="#1B3A56"/>
<stop offset="1" stop-color="#082947"/>
</linearGradient>
<linearGradient id="paint84_linear_0_6216" x1="446" y1="54.9993" x2="449" y2="54.9993" gradientUnits="userSpaceOnUse">
<stop stop-color="#1B3A56"/>
<stop offset="1" stop-color="#082947"/>
</linearGradient>
<linearGradient id="paint85_linear_0_6216" x1="256" y1="252" x2="257.999" y2="252" gradientUnits="userSpaceOnUse">
<stop stop-color="#1B3A56"/>
<stop offset="1" stop-color="#082947"/>
</linearGradient>
<linearGradient id="paint86_linear_0_6216" x1="353" y1="283.989" x2="361.001" y2="283.989" gradientUnits="userSpaceOnUse">
<stop stop-color="#D8E1F2"/>
<stop offset="1" stop-color="#D2DEE8"/>
</linearGradient>
<linearGradient id="paint87_linear_0_6216" x1="417" y1="301.991" x2="424.998" y2="301.991" gradientUnits="userSpaceOnUse">
<stop stop-color="#D8E1F2"/>
<stop offset="1" stop-color="#D2DEE8"/>
</linearGradient>
<linearGradient id="paint88_linear_0_6216" x1="443" y1="215" x2="464" y2="215" gradientUnits="userSpaceOnUse">
<stop stop-color="#1B3A56"/>
<stop offset="1" stop-color="#082947"/>
</linearGradient>
<linearGradient id="paint89_linear_0_6216" x1="448" y1="203" x2="464" y2="203" gradientUnits="userSpaceOnUse">
<stop stop-color="#1B3A56"/>
<stop offset="1" stop-color="#082947"/>
</linearGradient>
<linearGradient id="paint90_linear_0_6216" x1="271.991" y1="221.022" x2="274" y2="221.022" gradientUnits="userSpaceOnUse">
<stop stop-color="#1B3A56"/>
<stop offset="1" stop-color="#082947"/>
</linearGradient>
<linearGradient id="paint91_linear_0_6216" x1="384.964" y1="421.049" x2="398.967" y2="421.049" gradientUnits="userSpaceOnUse">
<stop stop-color="#FFC174"/>
<stop offset="1" stop-color="#FFB661"/>
</linearGradient>
<linearGradient id="paint92_linear_0_6216" x1="387.014" y1="417.003" x2="395" y2="417.003" gradientUnits="userSpaceOnUse">
<stop stop-color="#1B3A56"/>
<stop offset="1" stop-color="#082947"/>
</linearGradient>
<linearGradient id="paint93_linear_0_6216" x1="387.015" y1="417.005" x2="395" y2="417.005" gradientUnits="userSpaceOnUse">
<stop stop-color="#D8E1F2"/>
<stop offset="1" stop-color="#D2DEE8"/>
</linearGradient>
<linearGradient id="paint94_linear_0_6216" x1="349" y1="411" x2="362" y2="411" gradientUnits="userSpaceOnUse">
<stop stop-color="#FFC174"/>
<stop offset="1" stop-color="#FFB661"/>
</linearGradient>
<linearGradient id="paint95_linear_0_6216" x1="352.002" y1="408.003" x2="359" y2="408.003" gradientUnits="userSpaceOnUse">
<stop stop-color="#1B3A56"/>
<stop offset="1" stop-color="#082947"/>
</linearGradient>
<linearGradient id="paint96_linear_0_6216" x1="351.991" y1="408.008" x2="359" y2="408.008" gradientUnits="userSpaceOnUse">
<stop stop-color="#D8E1F2"/>
<stop offset="1" stop-color="#D2DEE8"/>
</linearGradient>
<linearGradient id="paint97_linear_0_6216" x1="421" y1="411" x2="434" y2="411" gradientUnits="userSpaceOnUse">
<stop stop-color="#FFC174"/>
<stop offset="1" stop-color="#FFB661"/>
</linearGradient>
<linearGradient id="paint98_linear_0_6216" x1="425.002" y1="408.003" x2="432" y2="408.003" gradientUnits="userSpaceOnUse">
<stop stop-color="#1B3A56"/>
<stop offset="1" stop-color="#082947"/>
</linearGradient>
<linearGradient id="paint99_linear_0_6216" x1="423.991" y1="408.008" x2="431" y2="408.008" gradientUnits="userSpaceOnUse">
<stop stop-color="#D8E1F2"/>
<stop offset="1" stop-color="#D2DEE8"/>
</linearGradient>
<linearGradient id="paint100_linear_0_6216" x1="78" y1="411.001" x2="131" y2="411.001" gradientUnits="userSpaceOnUse">
<stop stop-color="#E0EBF2"/>
<stop offset="0.33" stop-color="#DBE9ED"/>
<stop offset="1" stop-color="#D6E7E8"/>
</linearGradient>
<linearGradient id="paint101_linear_0_6216" x1="64" y1="405.998" x2="133.996" y2="405.998" gradientUnits="userSpaceOnUse">
<stop stop-color="#D1DCF0"/>
<stop offset="1" stop-color="#D2DEE8"/>
</linearGradient>
<linearGradient id="paint102_linear_0_6216" x1="94" y1="406.007" x2="129.998" y2="406.007" gradientUnits="userSpaceOnUse">
<stop stop-color="#E5ECF5"/>
<stop offset="1" stop-color="#E9EBF3"/>
</linearGradient>
<linearGradient id="paint103_linear_0_6216" x1="84.9935" y1="345.024" x2="133.008" y2="345.024" gradientUnits="userSpaceOnUse">
<stop stop-color="#FFB27B"/>
<stop offset="1" stop-color="#FFAF61"/>
</linearGradient>
<linearGradient id="paint104_linear_0_6216" x1="48.9756" y1="373.029" x2="70" y2="373.029" gradientUnits="userSpaceOnUse">
<stop stop-color="#FFB27B"/>
<stop offset="1" stop-color="#FFAF61"/>
</linearGradient>
<linearGradient id="paint105_linear_0_6216" x1="52.9937" y1="372.006" x2="126.999" y2="372.006" gradientUnits="userSpaceOnUse">
<stop stop-color="#FFC174"/>
<stop offset="1" stop-color="#FFB661"/>
</linearGradient>
<linearGradient id="paint106_linear_0_6216" x1="70" y1="361" x2="96" y2="361" gradientUnits="userSpaceOnUse">
<stop stop-color="#FFB27B"/>
<stop offset="1" stop-color="#FFAF61"/>
</linearGradient>
<linearGradient id="paint107_linear_0_6216" x1="46.987" y1="370.004" x2="76" y2="370.004" gradientUnits="userSpaceOnUse">
<stop stop-color="#79ABE2"/>
<stop offset="1" stop-color="#6497D9"/>
</linearGradient>
<linearGradient id="paint108_linear_0_6216" x1="20.9903" y1="371.003" x2="74.9969" y2="371.003" gradientUnits="userSpaceOnUse">
<stop stop-color="#79ABE2"/>
<stop offset="1" stop-color="#6497D9"/>
</linearGradient>
<linearGradient id="paint109_linear_0_6216" x1="69.9908" y1="370.001" x2="76.9908" y2="370.001" gradientUnits="userSpaceOnUse">
<stop stop-color="#1B3A56"/>
<stop offset="1" stop-color="#082947"/>
</linearGradient>
<linearGradient id="paint110_linear_0_6216" x1="77" y1="371.027" x2="80.0043" y2="371.027" gradientUnits="userSpaceOnUse">
<stop stop-color="#1B3A56"/>
<stop offset="1" stop-color="#082947"/>
</linearGradient>
<linearGradient id="paint111_linear_0_6216" x1="42.0014" y1="351.997" x2="111" y2="351.997" gradientUnits="userSpaceOnUse">
<stop stop-color="#79ABE2"/>
<stop offset="1" stop-color="#6497D9"/>
</linearGradient>
<linearGradient id="paint112_linear_0_6216" x1="70.0003" y1="354.003" x2="110" y2="354.003" gradientUnits="userSpaceOnUse">
<stop stop-color="#1B3A56"/>
<stop offset="1" stop-color="#082947"/>
</linearGradient>
<linearGradient id="paint113_linear_0_6216" x1="84.0001" y1="355.001" x2="108" y2="355.001" gradientUnits="userSpaceOnUse">
<stop stop-color="#1B3A56"/>
<stop offset="1" stop-color="#082947"/>
</linearGradient>
<linearGradient id="paint114_linear_0_6216" x1="103.002" y1="352.996" x2="113" y2="352.996" gradientUnits="userSpaceOnUse">
<stop stop-color="#1B3A56"/>
<stop offset="1" stop-color="#082947"/>
</linearGradient>
<linearGradient id="paint115_linear_0_6216" x1="117" y1="342.997" x2="127" y2="342.997" gradientUnits="userSpaceOnUse">
<stop stop-color="#79ABE2"/>
<stop offset="1" stop-color="#6497D9"/>
</linearGradient>
<linearGradient id="paint116_linear_0_6216" x1="94.013" y1="344.978" x2="125" y2="344.978" gradientUnits="userSpaceOnUse">
<stop stop-color="#79ABE2"/>
<stop offset="1" stop-color="#6497D9"/>
</linearGradient>
<linearGradient id="paint117_linear_0_6216" x1="92.4767" y1="244.172" x2="97.5257" y2="244.172" gradientUnits="userSpaceOnUse">
<stop stop-color="#FF9B61"/>
<stop offset="0.26" stop-color="#FF9860"/>
<stop offset="1" stop-color="#FF945F"/>
</linearGradient>
<linearGradient id="paint118_linear_0_6216" x1="115.931" y1="267.331" x2="119.046" y2="267.331" gradientUnits="userSpaceOnUse">
<stop stop-color="#FF9B61"/>
<stop offset="0.26" stop-color="#FF9860"/>
<stop offset="1" stop-color="#FF945F"/>
</linearGradient>
<linearGradient id="paint119_linear_0_6216" x1="20.207" y1="262.902" x2="47.7875" y2="262.902" gradientUnits="userSpaceOnUse">
<stop stop-color="#FF9B61"/>
<stop offset="0.26" stop-color="#FF9860"/>
<stop offset="1" stop-color="#FF945F"/>
</linearGradient>
<linearGradient id="paint120_linear_0_6216" x1="37.4382" y1="304.037" x2="48.5622" y2="304.037" gradientUnits="userSpaceOnUse">
<stop stop-color="#FF9B61"/>
<stop offset="0.26" stop-color="#FF9860"/>
<stop offset="1" stop-color="#FF945F"/>
</linearGradient>
<linearGradient id="paint121_linear_0_6216" x1="-0.0218333" y1="334.013" x2="26.9915" y2="334.013" gradientUnits="userSpaceOnUse">
<stop stop-color="#FF9B61"/>
<stop offset="0.26" stop-color="#FF9860"/>
<stop offset="1" stop-color="#FF945F"/>
</linearGradient>
<clipPath id="clip0_0_6216">
<rect width="525" height="430" fill="white"/>
</clipPath>
</defs>
</svg>
