<svg xmlns="http://www.w3.org/2000/svg" width="24" height="24" viewBox="0 0 24 24" fill="none">
<path fill-rule="evenodd" clip-rule="evenodd" d="M3.0014 5.39476C2.96658 4.26751 3.58161 3.11745 4.68251 2.47262C5.78309 1.828 7.07191 1.86247 8.01671 2.45617C7.08328 2.64654 6.15586 2.9952 5.27484 3.51123C4.39296 4.02776 3.63099 4.66899 3.0014 5.39476ZM16.7055 17.5992C16.7966 18.7692 16.1772 19.9869 15.0318 20.6578C13.8864 21.3287 12.5371 21.264 11.5839 20.599L16.7055 17.5992ZM6.18166 4.60475C3.13915 6.3867 2.0967 10.3333 3.8533 13.4197L6.07892 17.3303L5.8218 21.3745C5.79208 21.8421 6.28804 22.1546 6.68804 21.9203L20.7108 13.7074C21.1108 13.4731 21.092 12.8812 20.678 12.6735L17.0968 10.8772L14.8712 6.96672C13.1146 3.88029 9.22418 2.8228 6.18166 4.60475Z" fill="white"/>
</svg>