<svg xmlns="http://www.w3.org/2000/svg" width="24" height="24" viewBox="0 0 24 24" fill="none">
<path fill-rule="evenodd" clip-rule="evenodd" d="M16.5442 21.0805C16.2014 21.2572 15.7809 21.1212 15.605 20.7765C15.4292 20.4319 15.5646 20.0092 15.9074 19.8325C18.7862 18.3483 20.6047 15.3681 20.6047 12.0901C20.6047 7.29178 16.7519 3.4026 12 3.4026C7.24814 3.4026 3.39535 7.29178 3.39535 12.0901C3.39535 15.3762 5.22287 18.3625 8.11246 19.8427C8.45577 20.0186 8.59225 20.4409 8.4173 20.786C8.24235 21.131 7.82221 21.2682 7.47891 21.0924C4.12282 19.3732 2 15.9048 2 12.0901C2 6.51783 6.47681 2 12 2C17.5232 2 22 6.51783 22 12.0901C22 15.8954 19.8877 19.3567 16.5442 21.0805ZM11.3023 15.2494C9.83945 14.9283 8.74419 13.6187 8.74419 12.0519C8.74419 10.2445 10.2019 8.77922 12 8.77922C13.7981 8.77922 15.2558 10.2445 15.2558 12.0519C15.2558 13.6187 14.1605 14.9283 12.6977 15.2494V21.1688C12.6977 21.5561 12.3853 21.8701 12 21.8701C11.6147 21.8701 11.3023 21.5561 11.3023 21.1688V15.2494ZM14.0491 17.0695C14.2336 17.4031 14.6552 17.5257 14.9922 17.3457C17.0145 16.2659 18.2791 14.1897 18.2791 11.9155C18.2791 8.50381 15.4667 5.74026 12 5.74026C8.53333 5.74026 5.72093 8.50381 5.72093 11.9155C5.72093 14.1835 6.97857 16.2549 8.9923 17.3374C9.32884 17.5183 9.75072 17.397 9.93618 17.0638C10.1234 16.7276 9.99766 16.3058 9.65808 16.1232C8.09193 15.2813 7.11628 13.6745 7.11628 11.9155C7.11628 9.26926 9.30163 7.12187 12 7.12187C14.6984 7.12187 16.8837 9.26926 16.8837 11.9155C16.8837 13.6793 15.9027 15.2898 14.3299 16.1297C13.9898 16.3112 13.8629 16.7327 14.0491 17.0695Z" fill="white"/>
</svg>