<svg xmlns="http://www.w3.org/2000/svg" width="16" height="16" viewBox="0 0 24 24" fill="none">
<path fill-rule="evenodd" clip-rule="evenodd" d="M6.99212 3H4.93326C3.31327 3 2 4.31327 2 5.93326V17.4935C2 19.301 3.46525 20.7662 5.27273 20.7662H18.3636C20.1711 20.7662 21.6364 19.301 21.6364 17.4935V7.20779C21.6364 6.94958 21.427 6.74026 21.1688 6.74026H11.29C11.1602 6.74026 11.0363 6.68634 10.9479 6.5914L8.01843 3.44658C7.75311 3.16176 7.38137 3 6.99212 3ZM18.8312 3.93506H9.75137L11.4934 5.80519H21.1688C21.2791 5.80519 21.3865 5.81793 21.4895 5.84201C21.115 4.73329 20.0663 3.93506 18.8312 3.93506Z" fill="white"/>
</svg>