<svg xmlns="http://www.w3.org/2000/svg" width="24" height="24" viewBox="0 0 24 24" fill="none">
<path fill-rule="evenodd" clip-rule="evenodd" d="M12 22C6.47715 22 2 17.5228 2 12C2 6.47715 6.47715 2 12 2C17.5228 2 22 6.47715 22 12C22 17.5228 17.5228 22 12 22ZM7.82222 14.2067C10.0885 16.9712 13.9674 16.9883 16.1796 14.2008C16.3431 13.9948 16.3086 13.6953 16.1026 13.5318C15.8966 13.3683 15.5971 13.4028 15.4336 13.6088C13.6024 15.9161 10.4436 15.9022 8.55876 13.6029C8.39203 13.3995 8.09199 13.3698 7.8886 13.5365C7.68521 13.7032 7.6555 14.0033 7.82222 14.2067ZM10.5041 8.98448C10.2466 8.2386 9.45971 7.71429 8.6397 7.71429C7.81989 7.71429 7.0445 8.23936 6.78776 8.98847C6.70249 9.23726 6.83505 9.50806 7.08384 9.59333C7.33262 9.67859 7.60343 9.54603 7.68869 9.29725C7.81026 8.94253 8.21764 8.66667 8.6397 8.66667C9.06495 8.66667 9.48296 8.94521 9.60382 9.29528C9.68965 9.54388 9.96075 9.67583 10.2093 9.59C10.4579 9.50418 10.5899 9.23308 10.5041 8.98448ZM17.1707 8.98448C16.9132 8.2386 16.1264 7.71429 15.3064 7.71429C14.4866 7.71429 13.7112 8.23936 13.4544 8.98847C13.3692 9.23726 13.5017 9.50806 13.7505 9.59333C13.9993 9.67859 14.2701 9.54603 14.3554 9.29725C14.4769 8.94253 14.8843 8.66667 15.3064 8.66667C15.7316 8.66667 16.1496 8.94521 16.2705 9.29528C16.3563 9.54388 16.6274 9.67583 16.876 9.59C17.1246 9.50418 17.2566 9.23308 17.1707 8.98448Z" fill="white"/>
</svg>