<svg xmlns="http://www.w3.org/2000/svg" width="24" height="24" viewBox="0 0 24 24" fill="none">
<path fill-rule="evenodd" clip-rule="evenodd" d="M17.0986 9.47951L22 14.3794V5.33333C22 3.49238 20.5076 2 18.6667 2H5.33333C3.49238 2 2 3.49238 2 5.33333V18.1905L8.80614 11.3843C8.99906 11.1914 9.3143 11.1997 9.49681 11.4025L11.8804 14.0244L16.4252 9.47957C16.6111 9.29363 16.9126 9.29361 17.0986 9.47951ZM10.5714 6.7619C10.5714 7.81388 9.71864 8.66667 8.66667 8.66667C7.6147 8.66667 6.7619 7.81388 6.7619 6.7619C6.7619 5.70993 7.6147 4.85714 8.66667 4.85714C9.71864 4.85714 10.5714 5.70993 10.5714 6.7619ZM8.66667 7.71429C8.14068 7.71429 7.71429 7.28789 7.71429 6.7619C7.71429 6.23592 8.14068 5.80952 8.66667 5.80952C9.19265 5.80952 9.61905 6.23592 9.61905 6.7619C9.61905 7.28789 9.19265 7.71429 8.66667 7.71429ZM22 18.6081V15.8998L16.7219 10.5714L12.4492 14.8861L18.8477 21.9937C20.6066 21.8859 22 20.4114 22 18.6081ZM5.20579 22H17.5562L9.02614 12.5282L2 19.6234C2.4273 21.0007 3.70098 22 5.20579 22Z" fill="white"/>
</svg>