<svg xmlns="http://www.w3.org/2000/svg" width="24" height="24" viewBox="0 0 24 24" fill="none">
<path fill-rule="evenodd" clip-rule="evenodd" d="M16.3636 2.80518C16.1054 2.80518 15.8961 3.0145 15.8961 3.27271V5.14284C15.8961 5.40105 16.1054 5.61037 16.3636 5.61037C16.6218 5.61037 16.8312 5.40105 16.8312 5.14284V3.27271C16.8312 3.0145 16.6218 2.80518 16.3636 2.80518ZM7.01297 2.80518C6.75476 2.80518 6.54544 3.0145 6.54544 3.27271V5.14284C6.54544 5.40105 6.75476 5.61037 7.01297 5.61037C7.27118 5.61037 7.48051 5.40105 7.48051 5.14284V3.27271C7.48051 3.0145 7.27118 2.80518 7.01297 2.80518ZM8.41557 3.74024H14.961V5.14284C14.961 5.91747 15.589 6.54544 16.3636 6.54544C17.1383 6.54544 17.7662 5.91747 17.7662 5.14284V3.74024H20.1039C20.8785 3.74024 21.5065 4.3682 21.5065 5.14284V8.41557H1.87012V5.14284C1.87012 4.3682 2.49808 3.74024 3.27271 3.74024H5.61038V5.14284C5.61038 5.91747 6.23834 6.54544 7.01297 6.54544C7.78761 6.54544 8.41557 5.91747 8.41557 5.14284V3.74024ZM21.5065 17.2987V9.35063H1.87012V17.2987C1.87012 19.6226 3.75401 21.5065 6.07791 21.5065H17.2987C19.6226 21.5065 21.5065 19.6226 21.5065 17.2987ZM7.52545 13.976C7.7255 13.7857 8.04198 13.7935 8.23234 13.9936L10.255 16.1192L14.5025 11.5117C14.6897 11.3087 15.006 11.2958 15.209 11.483C15.412 11.6702 15.4249 11.9865 15.2377 12.1895L10.6284 17.1895C10.4325 17.402 10.0978 17.4047 9.89857 17.1953L7.5079 14.6829C7.31754 14.4829 7.3254 14.1664 7.52545 13.976Z" fill="white"/>
</svg>