<svg xmlns="http://www.w3.org/2000/svg" width="24" height="24" viewBox="0 0 24 24" fill="none">
<path fill-rule="evenodd" clip-rule="evenodd" d="M3.80136 6.71702C3.6494 6.48402 3.68143 6.17644 3.87812 5.97974L5.97974 3.87812C6.17644 3.68143 6.48402 3.6494 6.71702 3.80136L8.34331 4.86198C8.72717 4.66497 9.1267 4.49917 9.53843 4.3665L9.93831 2.46705C9.99562 2.19485 10.2358 2 10.5139 2H13.4861C13.7642 2 14.0044 2.19485 14.0617 2.46705L14.4616 4.3665C14.8733 4.49917 15.2728 4.66497 15.6567 4.86198L17.283 3.80136C17.516 3.6494 17.8236 3.68143 18.0203 3.87812L20.1219 5.97974C20.3186 6.17644 20.3506 6.48402 20.1986 6.71702L19.138 8.34331C19.335 8.72717 19.5008 9.1267 19.6335 9.53843L21.5329 9.93831C21.8051 9.99562 22 10.2358 22 10.5139V13.4861C22 13.7642 21.8051 14.0044 21.5329 14.0617L19.6335 14.4616C19.5008 14.8733 19.335 15.2728 19.138 15.6567L20.1986 17.283C20.3506 17.516 20.3186 17.8236 20.1219 18.0203L18.0203 20.1219C17.8236 20.3186 17.516 20.3506 17.283 20.1986L15.6567 19.138C15.2728 19.335 14.8733 19.5008 14.4616 19.6335L14.0617 21.5329C14.0044 21.8051 13.7642 22 13.4861 22H10.5139C10.2358 22 9.99562 21.8051 9.93831 21.5329L9.53843 19.6335C9.1267 19.5008 8.72717 19.335 8.34331 19.138L6.71702 20.1986C6.48402 20.3506 6.17644 20.3186 5.97974 20.1219L3.87812 18.0203C3.68143 17.8236 3.6494 17.516 3.80136 17.283L4.86198 15.6567C4.66497 15.2728 4.49917 14.8733 4.3665 14.4616L2.46705 14.0617C2.19485 14.0044 2 13.7642 2 13.4861V10.5139C2 10.2358 2.19485 9.99562 2.46705 9.93831L4.3665 9.53843C4.49917 9.1267 4.66497 8.72717 4.86198 8.34331L3.80136 6.71702ZM12 16.1176C9.72589 16.1176 7.88235 14.2741 7.88235 12C7.88235 9.72589 9.72589 7.88235 12 7.88235C14.2741 7.88235 16.1176 9.72589 16.1176 12C16.1176 14.2741 14.2741 16.1176 12 16.1176ZM14.9412 12C14.9412 13.6244 13.6244 14.9412 12 14.9412C10.3756 14.9412 9.05882 13.6244 9.05882 12C9.05882 10.3756 10.3756 9.05882 12 9.05882C13.6244 9.05882 14.9412 10.3756 14.9412 12Z" fill="white"/>
</svg>