<svg xmlns="http://www.w3.org/2000/svg" width="24" height="24" viewBox="0 0 24 24" fill="none">
<path fill-rule="evenodd" clip-rule="evenodd" d="M21.5065 11.6883C21.5065 6.26587 17.1107 1.87012 11.6883 1.87012C6.26587 1.87012 1.87012 6.26587 1.87012 11.6883C1.87012 17.1107 6.26587 21.5065 11.6883 21.5065C17.1107 21.5065 21.5065 17.1107 21.5065 11.6883ZM8.28085 15.7519L14.9671 9.07017V13.5604C14.9671 13.8183 15.175 14.0274 15.4316 14.0274C15.6881 14.0274 15.8961 13.8183 15.8961 13.5604V7.94748C15.8961 7.68927 15.6877 7.48008 15.4308 7.48051L15.4227 7.48052L15.4144 7.48054L9.85675 7.48982C9.60021 7.49025 9.39259 7.69967 9.39302 7.95756C9.39344 8.21546 9.60175 8.42419 9.85829 8.42376L14.3036 8.41633L7.6259 15.0895C7.18666 15.5285 7.8416 16.1908 8.28085 15.7519Z" fill="white"/>
</svg>