<svg xmlns="http://www.w3.org/2000/svg" width="39" height="70" viewBox="0 0 39 70" fill="none">
<path fill-rule="evenodd" clip-rule="evenodd" d="M29 12.0746V28.1989C29 29.7307 30.3291 30.9726 31.9687 30.9726C33.6083 30.9726 34.9375 29.7307 34.9375 28.1989V12.0746C34.9375 10.5428 33.6083 9.30095 31.9687 9.30095C30.3291 9.30095 29 10.5428 29 12.0746Z" fill="white"/>
<path fill-rule="evenodd" clip-rule="evenodd" d="M31.5789 18.2351C31.5789 17.9609 31.809 17.749 32.1031 17.749C32.3974 17.749 32.6318 17.9609 32.6318 18.2351C32.6318 18.5016 32.3974 18.7173 32.1031 18.7173C31.809 18.7173 31.5789 18.5057 31.5789 18.2351ZM33.1562 18.2273C33.1562 17.6432 32.7044 17.2082 32.1031 17.2082C31.5234 17.2082 31.0544 17.6158 31.0544 18.1253C31.0544 18.3566 31.1526 18.5566 31.3273 18.7055C30.8968 18.6742 30.6494 18.4429 30.5087 17.9412L30.4064 17.5845C30.368 17.4472 30.2742 17.3689 30.1464 17.3689C30.0056 17.3689 29.8906 17.4707 29.8906 17.5962C29.8906 17.6295 29.8981 17.6558 29.9205 17.7344L29.9205 17.7344L29.9247 17.749L30.0184 18.0823C30.2529 18.9172 30.7475 19.2582 31.7153 19.2582H31.9113C32.6659 19.2582 33.1562 18.8506 33.1562 18.2273ZM33.1562 25.9404C33.1562 25.8053 33.044 25.7011 32.9077 25.7011C32.8475 25.7011 32.7954 25.7204 32.7392 25.7629L32.0412 26.2996L31.5077 25.813C31.4554 25.7629 31.3873 25.7358 31.3231 25.7358C31.1868 25.7358 31.0824 25.8401 31.0785 25.9753C31.0745 26.0448 31.1065 26.1065 31.1586 26.1529L31.8365 26.7593C31.9128 26.8249 31.973 26.8519 32.0372 26.8519C32.0973 26.8519 32.1575 26.8287 32.2298 26.7747L33.0681 26.122C33.1283 26.0795 33.1562 26.0177 33.1562 25.9404ZM32.8796 26.9369H31.3512C31.1947 26.9369 31.0785 27.045 31.0785 27.1957C31.0785 27.3462 31.1947 27.4583 31.3512 27.4583H32.8796C33.036 27.4583 33.1562 27.3462 33.1562 27.1957C33.1562 27.0489 33.036 26.9369 32.8796 26.9369ZM33.1562 24.4991C33.1562 23.8644 32.703 23.3582 32.1132 23.3582C31.5275 23.3582 31.0781 23.8644 31.0781 24.4991C31.0781 24.9066 31.2465 25.1982 31.4793 25.3611C31.5354 25.3997 31.5756 25.4083 31.6157 25.4083C31.7481 25.4083 31.8445 25.3012 31.8445 25.1639C31.8445 25.1038 31.8284 25.0523 31.7843 25.0052L31.7781 24.9983C31.6675 24.876 31.5515 24.7476 31.5515 24.5077C31.5515 24.2547 31.704 24.0445 31.9126 23.9672V24.5763C31.9126 24.6964 31.9929 24.7865 32.1012 24.7865C32.2136 24.7865 32.2938 24.6964 32.2938 24.5763L32.2978 23.9587C32.5185 24.0359 32.679 24.246 32.679 24.5077C32.679 24.7432 32.5671 24.8713 32.462 24.9916L32.4502 25.0052C32.4062 25.0523 32.386 25.1038 32.386 25.1639C32.386 25.3012 32.4822 25.4083 32.6148 25.4083C32.6548 25.4083 32.699 25.3997 32.7511 25.3611C32.9879 25.1982 33.1562 24.9066 33.1562 24.4991ZM32.8729 22.7725H31.3574C31.1972 22.7725 31.0781 22.6571 31.0781 22.5019C31.0781 22.3507 31.1972 22.2393 31.3574 22.2393H32.6881V21.5747H31.3574C31.1972 21.5747 31.0781 21.4594 31.0781 21.3042C31.0781 21.153 31.1972 21.0417 31.3574 21.0417H32.6881V20.3771H31.3574C31.1972 20.3771 31.0781 20.2617 31.0781 20.1065C31.0781 19.9513 31.1972 19.8439 31.3574 19.8439H32.8729C33.0372 19.8439 33.1562 19.9594 33.1562 20.1146V22.4979C33.1562 22.6571 33.0372 22.7725 32.8729 22.7725ZM32.1132 14.8653C32.703 14.8653 33.1562 15.3714 33.1562 16.0062C33.1562 16.4137 32.9879 16.7052 32.7511 16.8681C32.699 16.9068 32.6548 16.9153 32.6148 16.9153C32.4822 16.9153 32.386 16.8082 32.386 16.6709C32.386 16.6109 32.4062 16.5593 32.4502 16.5122L32.462 16.4987C32.5671 16.3783 32.679 16.2503 32.679 16.0148C32.679 15.7531 32.5185 15.543 32.2978 15.4657L32.2938 16.0833C32.2938 16.2034 32.2136 16.2935 32.1012 16.2935C31.9929 16.2935 31.9126 16.2034 31.9126 16.0833V15.4743C31.704 15.5515 31.5515 15.7617 31.5515 16.0148C31.5515 16.2547 31.6675 16.383 31.7781 16.5054L31.7843 16.5122C31.8284 16.5593 31.8445 16.6109 31.8445 16.6709C31.8445 16.8082 31.7481 16.9153 31.6157 16.9153C31.5756 16.9153 31.5354 16.9068 31.4793 16.8681C31.2465 16.7052 31.0781 16.4137 31.0781 16.0062C31.0781 15.3714 31.5275 14.8653 32.1132 14.8653ZM33.1562 12.7618C33.1562 12.6267 33.044 12.5224 32.9077 12.5224C32.8475 12.5224 32.7954 12.5417 32.7392 12.5842L32.0412 13.121L31.5077 12.6344C31.4554 12.5842 31.3873 12.5571 31.3231 12.5571C31.1868 12.5571 31.0824 12.6615 31.0785 12.7966C31.0745 12.8661 31.1065 12.9279 31.1586 12.9743L31.8365 13.5805C31.9128 13.6462 31.973 13.6733 32.0372 13.6733C32.0973 13.6733 32.1575 13.6501 32.2298 13.596L33.0681 12.9433C33.1283 12.9008 33.1562 12.839 33.1562 12.7618ZM32.8796 13.7583H31.3512C31.1947 13.7583 31.0785 13.8664 31.0785 14.017C31.0785 14.1675 31.1947 14.2796 31.3512 14.2796H32.8796C33.036 14.2796 33.1562 14.1675 33.1562 14.017C33.1562 13.8702 33.036 13.7583 32.8796 13.7583Z" fill="#1E0C6B"/>
<path fill-rule="evenodd" clip-rule="evenodd" d="M15.955 62.9885L15.9549 62.9886C13.3149 65.4068 2.1653 65.101 1.69444 64.9256C1.11974 65.4894 0.659471 67.82 0.547852 69.0891C16.0659 71.2472 19.5925 64.396 18.5888 60.3631C18.321 59.2863 17.3233 58.2794 16.0443 57.5279C17.5216 58.8003 17.4578 60.6081 16.8585 61.8486C17.3961 60.6083 17.4014 58.8787 15.9769 57.6474C15.0443 57.0976 13.9808 56.6792 12.9979 56.4565C14.3087 56.1789 14.921 56.0641 15.6796 55.9217C16.1907 55.8258 16.7683 55.7174 17.6707 55.5385C19.2177 56.9846 21.0335 58.4564 23.212 60.0362C30.5486 65.3564 35.8115 63.5086 37.3468 60.8734C39.0924 57.8768 38.6767 55.4008 37.1314 53.2876C34.0106 49.0198 27.2768 49.7684 20.3769 50.8654C20.6344 51.1006 20.87 51.3191 21.0977 51.5302C22.019 52.3844 22.8103 53.1182 24.3907 54.3506C24.3917 54.3514 24.3928 54.352 24.394 54.3525C24.3961 54.3533 24.3984 54.3537 24.4006 54.3535C33.5818 53.3996 35.5606 55.9668 35.7861 57.5587C35.9127 58.4524 35.2192 58.9656 34.1821 59.1438C32.4248 59.4455 29.3043 59.5218 23.6489 55.1614C20.9206 53.0578 14.2193 47.3344 11.2959 41.8496C11.0555 41.3987 10.8374 40.9302 10.6642 40.4511C10.2206 39.2252 9.92974 37.6355 11.489 36.7657C14.7034 34.9726 18.9641 35.8779 20.2431 36.7822C21.2804 37.5155 21.8786 38.3488 21.3171 40.4383C21.2165 40.4754 19.0822 40.8193 16.9751 41.1589C15.2306 41.4399 13.5048 41.718 12.9668 41.8166C13.5188 42.9252 14.7172 44.4273 15.542 45.3186C23.3601 44.0692 30.7206 43.4244 37.1545 43.313C37.404 41.2827 37.4025 41.0843 37.3902 39.4839C37.389 39.3193 37.3876 39.1399 37.3863 38.9421C31.6119 39.3351 27.4557 39.6505 23.9199 40.1114C24.3306 39.3132 24.8371 37.2686 23.6745 34.9129C21.5089 30.5243 15.4415 31.4498 13.5008 31.8025C10.3442 32.3763 8.51198 34.993 7.9662 38.0974C7.54266 40.5061 7.70361 43.0636 9.1006 45.5122C10.7091 48.3318 11.2461 48.9264 12.9652 50.8297C13.2701 51.1673 13.6122 51.546 14.0041 51.9857C10.8459 52.5741 5.71977 53.6496 4.02202 54.0823L3.92528 54.1072C3.87901 54.1191 3.84595 54.1434 3.79609 54.2262C3.48342 54.7456 2.99956 56.2641 3.15776 58.2884C4.66791 58.145 13.9205 58.4374 16.3005 61.9855C16.4389 62.1917 16.4426 62.4549 16.3173 62.6632C16.2013 62.7902 16.0796 62.8997 15.955 62.9885ZM2.7965 4.77401C2.74369 3.48312 2.87792 2.07326 3.28799 1.05708C3.33517 0.940216 3.39947 0.878212 3.58354 0.926178C5.34103 1.38382 12.0296 2.88511 17.6934 3.29945C17.7852 3.3062 17.8527 3.38051 17.8459 3.46383C17.762 4.49426 17.6793 4.98673 17.3973 6.12375C17.3064 6.49058 16.9617 6.86926 16.1739 6.81927C14.0183 6.68243 8.53495 6.19409 3.18823 5.18182C2.85372 5.11854 2.80768 5.04604 2.7965 4.77401ZM19.384 3.94399L19.3841 3.94353C19.4202 3.77117 19.4494 3.63229 19.4678 3.54238C19.478 3.49257 19.5246 3.45637 19.5821 3.45362C20.2577 3.42062 22.5734 3.51316 23.2365 3.54855C23.3003 3.55197 23.3459 3.60245 23.3412 3.65849C23.1623 5.78806 22.7546 7.18472 22.3055 7.37384C21.8421 7.5692 19.1509 7.33169 18.8848 7.28627C18.8117 7.27378 18.764 7.21817 18.7707 7.15283C18.8282 6.59357 19.1984 4.82872 19.3839 3.94424L19.384 3.94399ZM19.8739 16.6741C17.8195 15.7348 15.7635 15.4919 15.7635 15.4919C15.7143 15.4953 15.6749 15.5377 15.6577 15.5827C15.3323 16.4431 15.1903 17.3484 15.0908 18.4067C15.0829 18.4896 15.107 18.527 15.179 18.5492C17.8481 19.3715 19.8603 20.3686 21.0148 21.6075C22.236 22.918 22.8225 24.199 20.6665 25.1145C16.9106 26.7095 10.8229 24.5092 10.1896 20.7437C9.84438 18.6906 12.7551 18.8628 13.5877 18.9673C13.6876 18.9799 13.7061 18.8917 13.7264 18.7948C13.7314 18.7708 13.7366 18.7462 13.7431 18.7225C14.2473 15.8238 11.7313 14.5281 9.73463 16.1903C9.09838 16.7199 8.20032 18.1356 7.85771 19.6515C7.24587 22.3574 7.72605 25.4656 10.8436 27.6661C13.3463 29.4325 15.6979 29.9704 18.6355 29.6788C22.0987 29.335 23.8159 27.3478 24.3528 24.7168C24.9112 21.9804 23.675 19.0155 20.9875 17.2823C20.9938 17.2789 21.0004 17.2758 21.0067 17.2724C20.9453 17.2347 20.8833 17.1981 20.821 17.1621C21.8707 16.5941 22.7512 15.7469 23.1238 14.4794C23.8292 12.0796 22.9546 9.89127 18.5123 8.89276C18.3824 8.86356 18.3289 8.87404 18.2977 9.01636C18.1014 9.91328 17.8498 11.2875 17.7369 12.2271L17.7351 12.2418C17.7202 12.3638 17.7141 12.4133 17.8325 12.4406C17.8903 12.4538 17.9516 12.4674 18.016 12.4816C18.756 12.6448 19.8843 12.8937 20.4181 13.802C20.4955 13.9338 20.4399 14.0957 20.3299 14.2122C19.4614 15.1328 17.4424 15.3084 15.6272 15.4314C15.6272 15.4314 17.7851 15.6834 19.8739 16.6741Z" fill="white"/>
<path fill-rule="evenodd" clip-rule="evenodd" d="M20.6947 17.9004C21.1077 17.7924 21.5048 17.6786 21.875 17.5573C21.5864 17.641 21.2762 17.7184 20.9388 17.7888C20.8042 17.8169 20.6524 17.8466 20.6947 17.9004Z" fill="#FFB000"/>
</svg>