<svg xmlns="http://www.w3.org/2000/svg" width="412" height="246" viewBox="0 0 412 246" fill="none">
<path opacity="0.18" d="M411.963 214.844C411.579 220.672 408.178 226.357 402.237 231.773C396.738 236.786 389.062 241.569 379.585 246H33.4442C26.4287 241.369 20.3018 235.52 15.3542 228.73C13.5464 226.247 11.8972 223.652 10.4167 220.962C-32.6994 142.663 69.7704 -7.09265 104.213 0.261165C120.032 3.65325 110.687 37.8432 136.72 54.4372C185.978 85.8305 280.195 2.22485 307.934 27.3549C322.789 40.8088 297.935 66.7489 307.211 106.518C322.964 174.042 414.091 182.753 411.963 214.844Z" fill="url(#paint0_linear_0_5741)"/>
<defs>
<linearGradient id="paint0_linear_0_5741" x1="-117.729" y1="-32.6406" x2="-117.729" y2="353.949" gradientUnits="userSpaceOnUse">
<stop stop-color="white"/>
<stop offset="0.42" stop-color="#A1D2FD"/>
<stop offset="1" stop-color="#1B91FB"/>
</linearGradient>
</defs>
</svg>